<svg aria-hidden="true" style="position: absolute; width: 0; height: 0; overflow: hidden;" version="1.1" xmlns="http://www.w3.org/2000/svg" xmlns:xlink="http://www.w3.org/1999/xlink">
<defs>
<symbol id="untitled" viewBox="0 0 59 32">
<path fill="#dc3b5a" style="fill: var(--color1, #dc3b5a)" d="M2.035 31.138c-0.539-0.144-0.44-0.485 0.296-1.024 0.269-0.198 0.413-0.314 0.431-0.35 0.054-0.072 0.081-0.153 0.081-0.243 0.018-0.072 0.018-0.171 0-0.296s-0.027-0.216-0.027-0.269v-1.509c0.054-1.419 0.090-2.201 0.108-2.344 0.018-0.126 0.018-0.314 0-0.566-0.018-0.269-0.018-0.476 0-0.62 0.018-0.108 0.072-0.314 0.162-0.62s0.144-0.539 0.162-0.701c0.072-0.773 0.225-1.59 0.458-2.452 0.090-0.359 0.18-0.862 0.269-1.509 0.108-0.665 0.189-1.132 0.243-1.401 0.162-0.701 0.35-1.725 0.566-3.072 0.234-1.347 0.368-2.102 0.404-2.264 0.018-0.054 0.063-0.243 0.135-0.566 0.090-0.341 0.135-0.611 0.135-0.808 0-0.341 0.063-0.781 0.189-1.32 0.234-0.772 0.341-1.276 0.323-1.509-0.036-0.539 0.108-1.033 0.431-1.482 0.090-0.126 0.153-0.243 0.189-0.35s0.063-0.234 0.081-0.377c0.018-0.162 0.036-0.287 0.054-0.377 0.018-0.108 0.072-0.216 0.162-0.323 0.090-0.126 0.162-0.216 0.216-0.269 0.054-0.072 0.162-0.18 0.323-0.323s0.252-0.225 0.269-0.243c0.323-0.305 0.71-0.422 1.159-0.35 0.198 0.036 0.467 0.018 0.808-0.054 0.359-0.090 0.611-0.135 0.755-0.135 0.144-0.018 0.225-0.018 0.243 0 1.060 0 1.868 0.099 2.425 0.296 0.162 0.054 0.422 0.144 0.781 0.269 0.377 0.108 0.701 0.216 0.97 0.323 0.287 0.108 0.548 0.234 0.781 0.377 0.287 0.18 0.431 0.413 0.431 0.701 0 0.359-0.252 0.485-0.755 0.377-0.808-0.18-1.85-0.368-3.126-0.566-0.305-0.054-0.737-0.063-1.293-0.027-0.539 0.036-0.961 0.036-1.267 0-0.252-0.036-0.422 0.027-0.512 0.189-0.072 0.144-0.099 0.368-0.081 0.674 0.036 0.287 0.045 0.458 0.027 0.512-0.072 0.323-0.144 0.781-0.216 1.374s-0.135 1.015-0.189 1.267c-0.018 0.090-0.081 0.269-0.189 0.539s-0.162 0.467-0.162 0.593c0 0.323-0.090 0.79-0.269 1.401-0.072 0.269-0.144 0.665-0.216 1.186-0.054 0.521-0.126 0.907-0.216 1.159-0.305 1.024-0.548 2.003-0.728 2.937-0.108 0.629-0.332 1.527-0.674 2.695s-0.566 2.012-0.674 2.533c-0.234 1.096-0.404 1.967-0.512 2.614-0.054 0.288-0.117 0.71-0.189 1.267-0.054 0.557-0.108 0.97-0.162 1.24-0.072 0.557-0.099 0.925-0.081 1.105 0 0.054-0.009 0.153-0.027 0.296 0 0.162 0 0.305 0 0.431 0.018 0.126 0.063 0.224 0.135 0.296 0.126 0.126 0.377 0.189 0.755 0.189 0.162 0 0.395-0.018 0.701-0.054 0.305-0.018 0.485-0.027 0.539-0.027 0.305 0 0.395-0.108 0.269-0.323-0.036-0.054-0.207-0.081-0.512-0.081-0.683 0-1.051-0.009-1.105-0.027-0.18-0.072-0.243-0.171-0.189-0.296 0.054-0.108 0.153-0.198 0.296-0.269 0.162-0.072 0.341-0.108 0.539-0.108 0.234 0 0.476 0.054 0.728 0.162 0.144 0.054 0.35 0.099 0.62 0.135 0.287 0.036 0.503 0.081 0.647 0.135 0.359 0.144 0.755 0.243 1.186 0.296 0.305 0.054 0.593 0.243 0.862 0.566 0.108 0.126 0.269 0.261 0.485 0.404 0.234 0.162 0.386 0.278 0.458 0.35 0.144 0.144 0.189 0.288 0.135 0.431-0.036 0.144-0.144 0.261-0.323 0.35-0.144 0.072-0.305 0.108-0.485 0.108-0.198 0-0.431-0.045-0.701-0.135-0.737-0.251-1.572-0.359-2.506-0.323-0.234 0.018-0.602 0.018-1.105 0-0.485-0.018-0.853-0.018-1.105 0-0.647 0.036-1.141 0.054-1.482 0.054-0.090 0-0.296 0.027-0.62 0.081-0.323 0.072-0.566 0.090-0.728 0.054zM7.774 6.481c0 0.018-0.009 0.117-0.027 0.296s-0.027 0.341-0.027 0.485c0 0.144 0.027 0.234 0.081 0.269 0.090 0.054 0.171 0.054 0.243 0 0.072-0.072 0.117-0.18 0.135-0.323 0.036-0.144 0.054-0.261 0.054-0.35 0.018-0.108 0.027-0.189 0.027-0.243s0.009-0.144 0.027-0.269c0.018-0.126 0.027-0.234 0.027-0.323s-0.009-0.189-0.027-0.296c0-0.108-0.027-0.189-0.081-0.243s-0.135-0.081-0.243-0.081c-0.126 0-0.189 0.359-0.189 1.078zM23.198 18.526c0-0.323 0.251-0.907 0.755-1.752 0.090-0.162 0.153-0.323 0.189-0.485 0.036-0.18 0.054-0.278 0.054-0.296 0.216-0.485 0.575-1.105 1.078-1.859 0.521-0.773 0.97-1.32 1.347-1.644 0.162-0.144 0.35-0.341 0.566-0.593 0.216-0.269 0.377-0.44 0.485-0.512 0.269-0.198 0.44-0.413 0.512-0.647 0.054-0.18 0.198-0.449 0.431-0.808 0.251-0.359 0.449-0.539 0.593-0.539 0.126 0 0.233 0.063 0.323 0.189s0.18 0.225 0.269 0.296c0.323 0.216 0.485 0.386 0.485 0.512 0 0.18-0.054 0.341-0.162 0.485-0.306 0.503-0.719 1.060-1.24 1.671-0.054 0.072-0.126 0.162-0.216 0.269-0.072 0.108-0.189 0.278-0.35 0.512-0.144 0.216-0.288 0.422-0.431 0.62-0.234 0.323-0.467 0.548-0.701 0.674s-0.404 0.189-0.512 0.189c-0.090-0.018-0.135 0.009-0.135 0.081 0 0.054 0.081 0.225 0.243 0.512 0.018 0.036 0.009 0.063-0.027 0.081-0.036 0-0.090 0.009-0.162 0.027-0.072 0-0.126 0.027-0.162 0.081-0.216 0.305-0.314 0.539-0.296 0.701 0.036 0.162-0.081 0.35-0.35 0.566 0 0.018-0.045 0.036-0.135 0.054s-0.18 0.072-0.269 0.162c-0.090 0.090-0.135 0.243-0.135 0.458 0 0.18 0 0.261 0 0.243 0.018 0.054 0.117 0.099 0.296 0.135 0.054 0.018 0.117 0.009 0.189-0.027s0.135-0.054 0.189-0.054c0.108 0 0.233 0.027 0.377 0.081 0.144 0.036 0.251 0.054 0.323 0.054 0.413 0 0.755-0.045 1.024-0.135 0.18-0.072 0.449-0.305 0.808-0.701s0.602-0.71 0.728-0.943c0.395-0.737 0.736-1.284 1.024-1.644 0.036-0.036 0.054-0.081 0.054-0.135 0.018-0.054 0.027-0.099 0.027-0.135 0.018-0.036 0.045-0.054 0.081-0.054 0.072 0 0.117 0.018 0.135 0.054 0.018 0.018 0.018 0.063 0 0.135s-0.027 0.117-0.027 0.135c0 0.054 0 0.108 0 0.162 0.018 0.036 0.027 0.063 0.027 0.081 0 0.126-0.072 0.395-0.216 0.808s-0.261 0.683-0.35 0.808c-0.216 0.305-0.449 0.557-0.701 0.755-0.234 0.198-0.422 0.341-0.566 0.431-0.126 0.090-0.189 0.162-0.189 0.216 0 0.216 0.413 0.323 1.24 0.323 0.054 0 0.099 0 0.135 0s0.072 0 0.108 0c0.377 0 0.62-0.126 0.728-0.377 0.18-0.18 0.377-0.512 0.593-0.997 0.233-0.485 0.413-0.817 0.539-0.997 0.036-0.054 0.108-0.18 0.216-0.377 0.108-0.216 0.206-0.359 0.296-0.431 0.126-0.108 0.296-0.332 0.512-0.674s0.377-0.539 0.485-0.593c0.269-0.144 0.656-0.216 1.159-0.216 0.108 0 0.251-0.072 0.431-0.216 0.198-0.162 0.305-0.243 0.323-0.243 0.108 0 0.162 0.045 0.162 0.135s-0.036 0.198-0.108 0.323c-0.054 0.108-0.081 0.189-0.081 0.243 0 0.090 0.090 0.135 0.269 0.135 0.018 0 0.054 0 0.108 0 0.072-0.018 0.126-0.018 0.162 0 0.036 0 0.081 0.009 0.135 0.027s0.090 0.063 0.108 0.135c0.018 0.054 0.027 0.135 0.027 0.243 0 0.090-0.117 0.368-0.35 0.835-0.072 0.108-0.225 0.386-0.458 0.835-0.216 0.431-0.368 0.71-0.458 0.835-0.018 0.018-0.153 0.18-0.404 0.485-0.252 0.288-0.395 0.494-0.431 0.62-0.054 0.144-0.027 0.216 0.081 0.216 0.072 0 0.126-0.009 0.162-0.027 0.054-0.036 0.126-0.081 0.216-0.135 0.108-0.054 0.206-0.099 0.296-0.135 1.365-0.593 2.174-0.889 2.425-0.889 0.162 0 0.243 0.054 0.243 0.162 0 0.072-0.099 0.198-0.296 0.377s-0.404 0.332-0.62 0.458l-0.781 0.431c-0.162 0.090-0.341 0.162-0.539 0.216s-0.332 0.108-0.404 0.162c-0.072 0.036-0.108 0.099-0.108 0.189 0 0.18 0.206 0.305 0.62 0.377 0.395 0.072 0.647 0.144 0.755 0.216 0.090 0.072 0.216 0.126 0.377 0.162s0.314 0.090 0.458 0.162c0.036 0.018 0.251 0.027 0.647 0.027 0.108 0 0.233 0.018 0.377 0.054 0.162 0.018 0.332 0.099 0.512 0.243 0.198 0.126 0.296 0.305 0.296 0.539 0 0.108-0.090 0.234-0.269 0.377-0.162 0.144-0.359 0.216-0.593 0.216-0.072 0-0.422-0.063-1.051-0.189-0.072-0.018-0.171-0.027-0.296-0.027s-0.225-0.009-0.296-0.027c-0.108-0.018-0.279-0.072-0.512-0.162-0.234-0.108-0.395-0.162-0.485-0.162-0.054 0-0.18 0.009-0.377 0.027s-0.341 0.027-0.431 0.027c-0.216 0-0.503-0.090-0.862-0.269-0.054-0.036-0.144-0.090-0.269-0.162s-0.234-0.135-0.323-0.189c-0.090-0.054-0.162-0.081-0.216-0.081-0.162 0-0.306 0.063-0.431 0.189-0.108 0.108-0.216 0.269-0.323 0.485s-0.198 0.359-0.269 0.431c-0.252 0.341-0.53 0.701-0.835 1.078-0.288 0.377-0.494 0.656-0.62 0.835-0.126 0.162-0.252 0.341-0.377 0.539-0.126 0.18-0.234 0.35-0.323 0.512-0.036 0.072-0.225 0.332-0.566 0.781-0.323 0.431-0.485 0.763-0.485 0.997 0 0.18-0.135 0.368-0.404 0.566-0.252 0.198-0.449 0.296-0.593 0.296-0.162 0-0.306-0.063-0.431-0.189-0.126-0.108-0.189-0.243-0.189-0.404 0-0.18 0.072-0.359 0.216-0.539 0.036-0.054 0.063-0.162 0.081-0.323 0.036-0.144 0.081-0.261 0.135-0.35 0.108-0.108 0.206-0.404 0.296-0.889 0.108-0.503 0.233-0.844 0.377-1.024 0.341-0.413 0.521-0.763 0.539-1.051 0.018-0.162 0.153-0.44 0.404-0.835s0.377-0.674 0.377-0.835c0-0.144-0.090-0.216-0.269-0.216-0.359 0.036-0.692 0.054-0.997 0.054-0.216 0.018-0.503 0.009-0.862-0.027s-0.566-0.054-0.62-0.054c-0.162 0-0.44-0.081-0.835-0.243-0.377-0.18-0.593-0.278-0.647-0.296-0.737-0.288-1.213-0.458-1.428-0.512-0.018 0-0.054-0.018-0.108-0.054s-0.117-0.090-0.189-0.162c-0.054-0.090-0.081-0.18-0.081-0.269zM35.028 12.328c-0.036-0.072 0.009-0.18 0.135-0.323 0.144-0.162 0.323-0.296 0.539-0.404 0.036-0.018 0.081-0.009 0.135 0.027 0.054 0.018 0.081 0.063 0.081 0.135 0.018 0.054 0 0.108-0.054 0.162l-0.054 0.189c-0.054 0.126-0.117 0.243-0.189 0.35-0.072 0.090-0.153 0.135-0.243 0.135-0.162 0-0.279-0.090-0.35-0.269zM34.112 15.724c0 0.144 0.063 0.243 0.189 0.296 0.126 0.036 0.251-0.009 0.377-0.135 0.018-0.018 0.054-0.045 0.108-0.081 0.072-0.036 0.117-0.081 0.135-0.135s0.027-0.153 0.027-0.296c0-0.054-0.027-0.108-0.081-0.162s-0.117-0.063-0.189-0.027c-0.054 0.018-0.099 0.081-0.135 0.189 0 0.018-0.072 0.072-0.216 0.162-0.144 0.072-0.216 0.135-0.216 0.189zM33.438 14.188c0 0.431 0.063 0.647 0.189 0.647 0.054 0 0.099-0.027 0.135-0.081 0.054-0.072 0.090-0.135 0.108-0.189s0.045-0.081 0.081-0.081c0.072 0.018 0.108-0.081 0.108-0.296 0-0.18-0.099-0.269-0.296-0.269-0.216 0-0.323 0.090-0.323 0.269zM33.465 17.071c0 0.018-0.018 0.063-0.054 0.135-0.054 0.18-0.045 0.269 0.027 0.269 0.198 0 0.296-0.108 0.296-0.323 0-0.018 0.009-0.063 0.027-0.135 0.018-0.18-0.009-0.278-0.081-0.296-0.144 0-0.216 0.117-0.216 0.35zM33.25 17.718c-0.036-0.036-0.099 0-0.189 0.108s-0.135 0.198-0.135 0.269c0 0.126 0.072 0.171 0.216 0.135 0.108-0.036 0.162-0.108 0.162-0.216 0-0.18-0.018-0.278-0.054-0.296zM33.034 15.67c0.036 0.323 0.135 0.261 0.296-0.189l0.027-0.081c0.018-0.126 0.027-0.189 0.027-0.189-0.090 0-0.171 0.063-0.243 0.189s-0.108 0.216-0.108 0.269zM31.282 20.143c-0.108 0.18-0.099 0.269 0.027 0.269 0.054 0 0.099-0.045 0.135-0.135 0.054-0.090 0.054-0.144 0-0.162l-0.162 0.027zM31.875 18.095c0 0.018 0.027 0.054 0.081 0.108 0.126 0 0.189-0.063 0.189-0.189 0-0.018-0.018-0.045-0.054-0.081l-0.027-0.027c-0.126 0-0.189 0.063-0.189 0.189zM28.911 10.496c0 0.090 0.036 0.135 0.108 0.135 0.090 0 0.135-0.045 0.135-0.135 0-0.108-0.045-0.162-0.135-0.162-0.072 0-0.108 0.054-0.108 0.162zM47.966 30.491c-0.377-0.072-0.665-0.224-0.862-0.458-0.198-0.216-0.162-0.467 0.108-0.755 0.377-0.305 0.934-0.458 1.671-0.458 0.108 0 0.279 0 0.512 0 0.216 0.018 0.368 0.027 0.458 0.027 0.737 0.054 1.213 0.063 1.428 0.027 0.144-0.036 0.332-0.117 0.566-0.243s0.413-0.198 0.539-0.216c0.162-0.036 0.449-0.018 0.862 0.054 0.431 0.090 0.728 0.135 0.889 0.135 0.323 0 0.539-0.090 0.647-0.269 0.090-0.036 0.090-0.216 0-0.539-0.072-0.323-0.108-0.512-0.108-0.566 0-0.269-0.018-0.71-0.054-1.32-0.018-0.144-0.018-0.341 0-0.593 0.036-0.234 0.054-0.395 0.054-0.485 0-0.162-0.108-0.323-0.323-0.485-0.198-0.162-0.314-0.288-0.35-0.377-0.036-0.108-0.027-0.278 0.027-0.512 0.054-0.251 0.072-0.422 0.054-0.512-0.054-0.413-0.081-0.808-0.081-1.186 0-0.952 0.036-1.671 0.108-2.156 0.054-0.323 0.099-0.763 0.135-1.32 0.054-0.575 0.099-0.979 0.135-1.213 0.036-0.287 0.072-0.593 0.108-0.916 0.054-0.341 0.108-0.71 0.162-1.105s0.099-0.71 0.135-0.943c0.036-0.269 0.072-0.683 0.108-1.24 0.036-0.575 0.072-0.997 0.108-1.267 0.036-0.252 0.063-0.674 0.081-1.267 0.036-0.611 0.090-1.069 0.162-1.374 0.216-1.114 0.413-1.958 0.593-2.533 0.018-0.054 0.054-0.216 0.108-0.485 0.072-0.269 0.135-0.467 0.189-0.593 0.198-0.449 0.207-0.844 0.027-1.186s-0.332-0.512-0.458-0.512c-0.126 0-0.278 0.090-0.458 0.269-0.198 0.18-0.584 0.332-1.159 0.458s-1.060 0.189-1.455 0.189c-0.162 0-0.35 0.027-0.566 0.081-0.198 0.054-0.332 0.090-0.404 0.108-0.305 0.054-0.494-0.045-0.566-0.296-0.054-0.269-0.009-0.485 0.135-0.647 0.108-0.126 0.225-0.225 0.35-0.296 0.126-0.090 0.207-0.144 0.243-0.162 0.054-0.036 0.189-0.072 0.404-0.108 0.234-0.054 0.377-0.090 0.431-0.108 0.216-0.054 0.521-0.153 0.916-0.296 0.395-0.162 0.638-0.252 0.728-0.269 0.108-0.036 0.35-0.144 0.728-0.323 0.395-0.18 0.71-0.287 0.943-0.323 0.288-0.036 0.593-0.117 0.916-0.243 0.485-0.162 0.755-0.243 0.808-0.243 0.503 0 0.818 0.090 0.943 0.269 0.072 0.054 0.090 0.135 0.054 0.243-0.018 0.090-0.036 0.162-0.054 0.216-0.018 0.036-0.063 0.108-0.135 0.216-0.072 0.090-0.117 0.162-0.135 0.216-0.036 0.090-0.072 0.252-0.108 0.485-0.036 0.216-0.099 0.377-0.189 0.485-0.036 0.054-0.108 0.126-0.216 0.216-0.090 0.090-0.153 0.162-0.189 0.216-0.018 0.036-0.054 0.108-0.108 0.216-0.036 0.108-0.027 0.198 0.027 0.269 0.126 0.377 0.090 0.719-0.108 1.024-0.090 0.108-0.117 0.287-0.081 0.539 0.036 0.234 0.036 0.404 0 0.512-0.054 0.18-0.171 0.593-0.35 1.24-0.18 0.629-0.296 1.114-0.35 1.455-0.198 1.186-0.296 1.994-0.296 2.425 0 0.359-0.045 0.871-0.135 1.536s-0.144 1.087-0.162 1.267c-0.036 0.323-0.054 0.808-0.054 1.455 0 0.054 0.018 0.207 0.054 0.458s0.036 0.404 0 0.458c-0.072 0.341-0.045 1.114 0.081 2.317 0.108 0.88 0.252 1.725 0.431 2.533 0.054 0.251 0.081 0.638 0.081 1.159 0 0.144 0.054 0.368 0.162 0.674 0.126 0.288 0.18 0.503 0.162 0.647-0.018 0.323-0.027 0.799-0.027 1.428 0 1.581-0.063 2.695-0.189 3.341 0 0.018-0.018 0.099-0.054 0.243-0.018 0.162-0.036 0.278-0.054 0.35-0.018 0.090-0.045 0.216-0.081 0.377s-0.081 0.288-0.135 0.377c-0.036 0.090-0.090 0.18-0.162 0.269-0.054 0.108-0.126 0.171-0.216 0.189-0.072 0.036-0.162 0.045-0.269 0.027-0.126-0.036-0.206-0.135-0.243-0.296-0.018-0.162-0.072-0.243-0.162-0.243-0.108 0-0.198 0.027-0.269 0.081-0.054 0.072-0.108 0.171-0.162 0.296s-0.099 0.216-0.135 0.269c-0.305 0.431-0.889 0.647-1.752 0.647-0.269 0-0.53-0.027-0.781-0.081-0.18-0.036-0.296-0.108-0.35-0.216s-0.018-0.216 0.108-0.323c0.072-0.054 0.216-0.090 0.431-0.108 0.234-0.018 0.368-0.072 0.404-0.162 0.036-0.108-0.027-0.189-0.189-0.243-0.162-0.036-0.377-0.054-0.647-0.054-0.593 0-1.051 0.045-1.374 0.135-0.647 0.144-1.087 0.198-1.32 0.162-0.18-0.036-0.422-0.072-0.728-0.108-0.323-0.018-0.557-0.036-0.701-0.054zM54.217 30.41c0.018-0.126-0.036-0.189-0.162-0.189s-0.224 0.081-0.296 0.243c-0.036 0.126 0.018 0.189 0.162 0.189 0.18 0 0.279-0.081 0.296-0.243zM56.4 3.112c-0.072 0.018-0.153 0.063-0.243 0.135s-0.090 0.135 0 0.189c0.144 0.090 0.269 0.054 0.377-0.108 0.090-0.144 0.063-0.216-0.081-0.216-0.018 0-0.036 0-0.054 0z"></path>
</symbol>
<symbol id="untitled1" viewBox="0 0 57 32">
<path fill="#dc3b5a" style="fill: var(--color1, #dc3b5a)" d="M2.035 31.138c-0.539-0.144-0.44-0.485 0.296-1.024 0.269-0.198 0.413-0.314 0.431-0.35 0.054-0.072 0.081-0.153 0.081-0.243 0.018-0.072 0.018-0.171 0-0.296s-0.027-0.216-0.027-0.269v-1.509c0.054-1.419 0.090-2.201 0.108-2.344 0.018-0.126 0.018-0.314 0-0.566-0.018-0.269-0.018-0.476 0-0.62 0.018-0.108 0.072-0.314 0.162-0.62s0.144-0.539 0.162-0.701c0.072-0.773 0.225-1.59 0.458-2.452 0.090-0.359 0.18-0.862 0.269-1.509 0.108-0.665 0.189-1.132 0.243-1.401 0.162-0.701 0.35-1.725 0.566-3.072 0.234-1.347 0.368-2.102 0.404-2.264 0.018-0.054 0.063-0.243 0.135-0.566 0.090-0.341 0.135-0.611 0.135-0.808 0-0.341 0.063-0.781 0.189-1.32 0.234-0.772 0.341-1.276 0.323-1.509-0.036-0.539 0.108-1.033 0.431-1.482 0.090-0.126 0.153-0.243 0.189-0.35s0.063-0.234 0.081-0.377c0.018-0.162 0.036-0.287 0.054-0.377 0.018-0.108 0.072-0.216 0.162-0.323 0.090-0.126 0.162-0.216 0.216-0.269 0.054-0.072 0.162-0.18 0.323-0.323s0.252-0.225 0.269-0.243c0.323-0.305 0.71-0.422 1.159-0.35 0.198 0.036 0.467 0.018 0.808-0.054 0.359-0.090 0.611-0.135 0.755-0.135 0.144-0.018 0.225-0.018 0.243 0 1.060 0 1.868 0.099 2.425 0.296 0.162 0.054 0.422 0.144 0.781 0.269 0.377 0.108 0.701 0.216 0.97 0.323 0.287 0.108 0.548 0.234 0.781 0.377 0.287 0.18 0.431 0.413 0.431 0.701 0 0.359-0.252 0.485-0.755 0.377-0.808-0.18-1.85-0.368-3.126-0.566-0.305-0.054-0.737-0.063-1.293-0.027-0.539 0.036-0.961 0.036-1.267 0-0.252-0.036-0.422 0.027-0.512 0.189-0.072 0.144-0.099 0.368-0.081 0.674 0.036 0.287 0.045 0.458 0.027 0.512-0.072 0.323-0.144 0.781-0.216 1.374s-0.135 1.015-0.189 1.267c-0.018 0.090-0.081 0.269-0.189 0.539s-0.162 0.467-0.162 0.593c0 0.323-0.090 0.79-0.269 1.401-0.072 0.269-0.144 0.665-0.216 1.186-0.054 0.521-0.126 0.907-0.216 1.159-0.305 1.024-0.548 2.003-0.728 2.937-0.108 0.629-0.332 1.527-0.674 2.695s-0.566 2.012-0.674 2.533c-0.234 1.096-0.404 1.967-0.512 2.614-0.054 0.288-0.117 0.71-0.189 1.267-0.054 0.557-0.108 0.97-0.162 1.24-0.072 0.557-0.099 0.925-0.081 1.105 0 0.054-0.009 0.153-0.027 0.296 0 0.162 0 0.305 0 0.431 0.018 0.126 0.063 0.224 0.135 0.296 0.126 0.126 0.377 0.189 0.755 0.189 0.162 0 0.395-0.018 0.701-0.054 0.305-0.018 0.485-0.027 0.539-0.027 0.305 0 0.395-0.108 0.269-0.323-0.036-0.054-0.207-0.081-0.512-0.081-0.683 0-1.051-0.009-1.105-0.027-0.18-0.072-0.243-0.171-0.189-0.296 0.054-0.108 0.153-0.198 0.296-0.269 0.162-0.072 0.341-0.108 0.539-0.108 0.234 0 0.476 0.054 0.728 0.162 0.144 0.054 0.35 0.099 0.62 0.135 0.287 0.036 0.503 0.081 0.647 0.135 0.359 0.144 0.755 0.243 1.186 0.296 0.305 0.054 0.593 0.243 0.862 0.566 0.108 0.126 0.269 0.261 0.485 0.404 0.234 0.162 0.386 0.278 0.458 0.35 0.144 0.144 0.189 0.288 0.135 0.431-0.036 0.144-0.144 0.261-0.323 0.35-0.144 0.072-0.305 0.108-0.485 0.108-0.198 0-0.431-0.045-0.701-0.135-0.737-0.251-1.572-0.359-2.506-0.323-0.234 0.018-0.602 0.018-1.105 0-0.485-0.018-0.853-0.018-1.105 0-0.647 0.036-1.141 0.054-1.482 0.054-0.090 0-0.296 0.027-0.62 0.081-0.323 0.072-0.566 0.090-0.728 0.054zM7.774 6.481c0 0.018-0.009 0.117-0.027 0.296s-0.027 0.341-0.027 0.485c0 0.144 0.027 0.234 0.081 0.269 0.090 0.054 0.171 0.054 0.243 0 0.072-0.072 0.117-0.18 0.135-0.323 0.036-0.144 0.054-0.261 0.054-0.35 0.018-0.108 0.027-0.189 0.027-0.243s0.009-0.144 0.027-0.269c0.018-0.126 0.027-0.234 0.027-0.323s-0.009-0.189-0.027-0.296c0-0.108-0.027-0.189-0.081-0.243s-0.135-0.081-0.243-0.081c-0.126 0-0.189 0.359-0.189 1.078zM19.291 26.314c-0.377-0.251-0.566-0.521-0.566-0.808 0-0.108 0.054-0.261 0.162-0.458s0.171-0.323 0.189-0.377c0.144-0.377 0.638-0.862 1.482-1.455 0.108-0.072 0.216-0.198 0.323-0.377 0.090-0.198 0.171-0.323 0.243-0.377s0.323-0.081 0.755-0.081l0.081-0.027c0.054-0.018 0.099-0.027 0.135-0.027 0.054 0 0.108 0.027 0.162 0.081 0.036 0.036 0.045 0.081 0.027 0.135-0.018 0.036-0.072 0.072-0.162 0.108-0.108 0.036-0.225 0.108-0.35 0.216-0.144 0.090-0.261 0.216-0.35 0.377-0.216 0.413-0.323 0.638-0.323 0.674v0.431c0 0.018-0.036 0.054-0.108 0.108-0.090 0.054-0.117 0.117-0.081 0.189s0.117 0.117 0.243 0.135c0.108 0 0.18 0.009 0.216 0.027 0.162 0.072 0.296 0.216 0.404 0.431 0.090 0.216 0.198 0.368 0.323 0.458 0.072 0.054 0.296 0.153 0.674 0.296s0.611 0.216 0.701 0.216c0.162 0 0.243-0.072 0.243-0.216 0-0.108-0.072-0.162-0.216-0.162-0.054 0-0.126 0.009-0.216 0.027-0.072 0.036-0.144 0.054-0.216 0.054-0.036 0-0.135-0.081-0.296-0.243-0.018-0.018-0.072-0.063-0.162-0.135-0.072-0.054-0.126-0.099-0.162-0.135s-0.081-0.090-0.135-0.162-0.090-0.153-0.108-0.243c-0.036-0.090-0.054-0.198-0.054-0.323 0-0.072 0.018-0.135 0.054-0.189 0.018-0.072 0.072-0.144 0.162-0.216 0.072-0.072 0.126-0.117 0.162-0.135 0.036-0.036 0.117-0.090 0.243-0.162s0.206-0.117 0.243-0.135c0.395-0.234 0.79-0.35 1.186-0.35 0.036 0 0.090-0.027 0.162-0.081 0.090-0.054 0.162-0.081 0.216-0.081 0.108 0 0.162 0.027 0.162 0.081 0 0.072-0.036 0.135-0.108 0.189-0.054 0.054-0.144 0.108-0.269 0.162s-0.216 0.099-0.269 0.135c-0.611 0.359-0.916 0.611-0.916 0.755 0 0.090 0.090 0.198 0.269 0.323 0.18 0.108 0.395 0.224 0.647 0.35 0.251 0.144 0.422 0.261 0.512 0.35 0.323 0.323 0.979 0.485 1.967 0.485 0.198 0 0.494-0.045 0.889-0.135s0.611-0.135 0.647-0.135c0.251-0.018 0.629-0.162 1.132-0.431 0.503-0.251 0.898-0.377 1.186-0.377 0.036 0 0.108 0.027 0.216 0.081 0.126 0.054 0.216 0.081 0.269 0.081 0.18 0 0.341-0.224 0.485-0.674 0.054-0.162 0.216-0.341 0.485-0.539 0.287-0.216 0.431-0.368 0.431-0.458 0-0.054-0.036-0.126-0.108-0.216-0.054-0.108-0.081-0.198-0.081-0.269 0-0.054 0.054-0.18 0.162-0.377 0.126-0.216 0.198-0.35 0.216-0.404 0.198-0.557 0.009-0.979-0.566-1.267-0.557-0.288-1.401-0.53-2.533-0.728-0.144-0.018-0.359-0.036-0.647-0.054-0.269-0.018-0.521-0.054-0.755-0.108-0.216-0.054-0.458-0.162-0.728-0.323-0.036-0.018-0.108-0.045-0.216-0.081-0.108-0.054-0.198-0.099-0.269-0.135-0.054-0.036-0.117-0.108-0.189-0.216-0.054-0.108-0.081-0.243-0.081-0.404 0-0.431 0.386-0.647 1.159-0.647 0.665 0 1.060-0.063 1.186-0.189 0.072-0.144 0.063-0.216-0.027-0.216s-0.198 0.018-0.323 0.054c-0.126 0.018-0.279 0.027-0.458 0.027-0.144 0-0.243-0.045-0.296-0.135-0.054-0.108-0.054-0.207 0-0.296 0.072-0.090 0.18-0.135 0.323-0.135 0.162 0 0.332-0.036 0.512-0.108 0.198-0.072 0.359-0.108 0.485-0.108l0.216 0.027c0.144 0.018 0.278 0.027 0.404 0.027 0.269 0 0.449 0 0.539 0 0.090-0.018 0.251-0.063 0.485-0.135 0.251-0.090 0.539-0.234 0.862-0.431 0.323-0.216 0.772-0.512 1.347-0.889 0.090-0.054 0.251-0.144 0.485-0.269 0.251-0.144 0.44-0.261 0.566-0.35s0.243-0.207 0.35-0.35c0.126-0.162 0.189-0.323 0.189-0.485 0-0.323-0.018-0.584-0.054-0.781-0.036-0.216-0.072-0.35-0.108-0.404s-0.099-0.117-0.189-0.189c-0.090-0.072-0.144-0.117-0.162-0.135v0.027c-0.054 0-0.135-0.072-0.243-0.216s-0.306-0.287-0.593-0.431c-0.288-0.144-0.683-0.216-1.186-0.216-0.144 0-0.296 0.036-0.458 0.108-0.162 0.054-0.279 0.081-0.35 0.081-0.288 0-0.512 0.135-0.674 0.404-0.162 0.252-0.377 0.377-0.647 0.377-0.018 0-0.036-0.009-0.054-0.027 0-0.018 0-0.036 0-0.054s-0.009-0.036-0.027-0.054c0-0.036-0.036-0.063-0.108-0.081-0.054-0.036-0.135-0.063-0.243-0.081-0.198 0-0.296 0.090-0.296 0.269l0.108 0.054c0.054 0.036 0.081 0.108 0.081 0.216 0 0.162-0.072 0.243-0.216 0.243-0.126 0-0.279-0.108-0.458-0.323s-0.269-0.395-0.269-0.539 0.063-0.261 0.189-0.35c0.072-0.054 0.189-0.198 0.35-0.431s0.287-0.35 0.377-0.35c0.539 0 0.799-0.072 0.781-0.216-0.018-0.018-0.036-0.045-0.054-0.081-0.072-0.090-0.189-0.135-0.35-0.135-0.126 0-0.314 0.045-0.566 0.135s-0.404 0.135-0.458 0.135c-0.018 0-0.072-0.009-0.162-0.027-0.072-0.018-0.135-0.027-0.189-0.027-0.108 0-0.162 0.072-0.162 0.216 0 0.018 0.009 0.045 0.027 0.081s0.027 0.072 0.027 0.108c0 0.162-0.099 0.243-0.296 0.243-0.341 0-0.521-0.153-0.539-0.458 0-0.036-0.018-0.099-0.054-0.189-0.036-0.108-0.054-0.207-0.054-0.296 0-0.126 0.117-0.243 0.35-0.35 0.233-0.126 0.422-0.189 0.566-0.189 0.647 0 1.275 0.054 1.886 0.162 0.305 0.054 0.808 0.081 1.509 0.081 0.233 0 0.494 0.036 0.781 0.108 0.305 0.072 0.584 0.108 0.835 0.108 0.988 0 1.913 0.305 2.776 0.916 0.862 0.593 1.293 1.365 1.293 2.317 0 0.234-0.108 0.53-0.323 0.889-0.198 0.341-0.413 0.629-0.647 0.862-0.018 0.018-0.216 0.171-0.593 0.458s-0.593 0.503-0.647 0.647c-0.018 0.036-0.045 0.099-0.081 0.189s-0.063 0.144-0.081 0.162c0 0.018-0.018 0.063-0.054 0.135s-0.063 0.126-0.081 0.162c-0.018 0.018-0.054 0.072-0.108 0.162s-0.108 0.162-0.162 0.216c-0.036 0.054-0.108 0.144-0.216 0.269-0.090 0.126-0.189 0.251-0.296 0.377-0.090 0.126-0.207 0.288-0.35 0.485-0.090 0.126-0.207 0.261-0.35 0.404-0.126 0.126-0.225 0.234-0.296 0.323-0.054 0.072-0.081 0.144-0.081 0.216 0 0.036 0.099 0.126 0.296 0.269 0.216 0.144 0.467 0.35 0.755 0.62s0.521 0.548 0.701 0.835c0.359 0.593 0.539 1.186 0.539 1.779 0 0.18-0.045 0.35-0.135 0.512-0.072 0.162-0.207 0.323-0.404 0.485-0.18 0.162-0.35 0.296-0.512 0.404s-0.395 0.234-0.701 0.377c-0.306 0.144-0.548 0.251-0.728 0.323-0.162 0.072-0.413 0.171-0.755 0.296-0.341 0.144-0.557 0.234-0.647 0.269-2.228 0.934-3.925 1.401-5.093 1.401-0.054 0-0.162-0.009-0.323-0.027-0.162 0-0.279 0-0.35 0s-0.261 0.018-0.566 0.054c-0.306 0.054-0.692 0.081-1.159 0.081-0.629 0-1.401-0.153-2.317-0.458-0.934-0.288-1.662-0.62-2.183-0.997zM20.369 24.994c-0.072-0.126-0.144-0.189-0.216-0.189s-0.171 0.072-0.296 0.216c-0.126 0.126-0.189 0.224-0.189 0.296s0.018 0.117 0.054 0.135c0.036 0.036 0.090 0.063 0.162 0.081s0.126 0.045 0.162 0.081c0.144 0.126 0.243 0.198 0.296 0.216 0.036 0.036 0.072 0.054 0.108 0.054 0.018 0.018 0.090 0.045 0.216 0.081 0.108 0.036 0.251 0.090 0.431 0.162 0.126 0.054 0.198 0.081 0.216 0.081 0 0.018 0.036 0.009 0.108-0.027 0-0.072-0.090-0.153-0.269-0.243-0.18-0.108-0.332-0.261-0.458-0.458-0.144-0.198-0.252-0.359-0.323-0.485zM33.169 23.862c0 0.090 0.063 0.135 0.189 0.135 0.287 0 0.494-0.296 0.62-0.889 0-0.018 0-0.045 0-0.081 0.018-0.036 0.027-0.072 0.027-0.108 0.018-0.036 0.027-0.072 0.027-0.108s-0.009-0.063-0.027-0.081c-0.018-0.036-0.045-0.054-0.081-0.054-0.072 0-0.117 0-0.135 0 0 0-0.027 0.009-0.081 0.027-0.054 0-0.090 0.018-0.108 0.054 0 0.018-0.009 0.054-0.027 0.108-0.018 0.036-0.027 0.090-0.027 0.162 0 0.090-0.063 0.234-0.189 0.431s-0.189 0.332-0.189 0.404zM36.052 14.592c-0.234 0-0.404 0.18-0.512 0.539-0.036 0.234 0 0.359 0.108 0.377 0.144 0 0.269-0.090 0.377-0.269s0.162-0.341 0.162-0.485c0-0.108-0.045-0.162-0.135-0.162zM32.953 16.317c-0.018 0.018-0.072 0.054-0.162 0.108s-0.162 0.108-0.216 0.162c-0.054 0.036-0.063 0.072-0.027 0.108 0.108 0.054 0.189 0.063 0.243 0.027 0.054-0.054 0.18-0.144 0.377-0.269 0.216-0.144 0.422-0.252 0.62-0.323 0.108-0.036 0.162-0.108 0.162-0.216 0-0.036-0.018-0.054-0.054-0.054-0.449 0-0.764 0.153-0.943 0.458zM32.791 17.502c-0.054 0.126 0.036 0.126 0.269 0l0.377-0.243c0.198-0.144 0.305-0.269 0.323-0.377 0-0.054-0.081-0.063-0.243-0.027-0.036 0-0.162 0.090-0.377 0.269-0.198 0.162-0.314 0.288-0.35 0.377zM31.282 18.984c0-0.072-0.045-0.117-0.135-0.135-0.090-0.036-0.189-0.036-0.296 0-0.090 0.036-0.135 0.090-0.135 0.162 0 0.126 0.099 0.189 0.296 0.189 0.18 0 0.269-0.072 0.269-0.216zM35.055 13.056c0-0.341-0.063-0.512-0.189-0.512s-0.18 0.090-0.162 0.269c0.036 0.162 0.090 0.269 0.162 0.323 0.126 0 0.189-0.027 0.189-0.081zM32.845 18.095c-0.072 0-0.153 0.027-0.243 0.081-0.090 0.036-0.135 0.081-0.135 0.135 0 0.126 0.063 0.189 0.189 0.189 0.18 0 0.269-0.081 0.269-0.243l-0.081-0.162zM29.288 18.499c-0.108 0-0.162 0.063-0.162 0.189s0.054 0.189 0.162 0.189c0.126 0 0.189-0.063 0.189-0.189s-0.063-0.189-0.189-0.189zM35.756 13.11c-0.090 0-0.135 0.045-0.135 0.135 0 0.126 0.054 0.189 0.162 0.189 0.090 0 0.135-0.045 0.135-0.135v-0.054c-0.018-0.018-0.045-0.045-0.081-0.081-0.018-0.036-0.045-0.054-0.081-0.054zM46.466 30.491c-0.377-0.072-0.665-0.224-0.862-0.458-0.198-0.216-0.162-0.467 0.108-0.755 0.377-0.305 0.934-0.458 1.671-0.458 0.108 0 0.278 0 0.512 0 0.216 0.018 0.368 0.027 0.458 0.027 0.736 0.054 1.213 0.063 1.428 0.027 0.144-0.036 0.332-0.117 0.566-0.243s0.413-0.198 0.539-0.216c0.162-0.036 0.449-0.018 0.862 0.054 0.431 0.090 0.728 0.135 0.889 0.135 0.323 0 0.539-0.090 0.647-0.269 0.090-0.036 0.090-0.216 0-0.539-0.072-0.323-0.108-0.512-0.108-0.566 0-0.269-0.018-0.71-0.054-1.32-0.018-0.144-0.018-0.341 0-0.593 0.036-0.234 0.054-0.395 0.054-0.485 0-0.162-0.108-0.323-0.323-0.485-0.198-0.162-0.314-0.288-0.35-0.377-0.036-0.108-0.027-0.278 0.027-0.512 0.054-0.251 0.072-0.422 0.054-0.512-0.054-0.413-0.081-0.808-0.081-1.186 0-0.952 0.036-1.671 0.108-2.156 0.054-0.323 0.099-0.763 0.135-1.32 0.054-0.575 0.099-0.979 0.135-1.213 0.036-0.287 0.072-0.593 0.108-0.916 0.054-0.341 0.108-0.71 0.162-1.105s0.099-0.71 0.135-0.943c0.036-0.269 0.072-0.683 0.108-1.24 0.036-0.575 0.072-0.997 0.108-1.267 0.036-0.252 0.063-0.674 0.081-1.267 0.036-0.611 0.090-1.069 0.162-1.374 0.216-1.114 0.413-1.958 0.593-2.533 0.018-0.054 0.054-0.216 0.108-0.485 0.072-0.269 0.135-0.467 0.189-0.593 0.198-0.449 0.207-0.844 0.027-1.186s-0.332-0.512-0.458-0.512c-0.126 0-0.278 0.090-0.458 0.269-0.198 0.18-0.584 0.332-1.159 0.458s-1.060 0.189-1.455 0.189c-0.162 0-0.35 0.027-0.566 0.081-0.198 0.054-0.332 0.090-0.404 0.108-0.305 0.054-0.494-0.045-0.566-0.296-0.054-0.269-0.009-0.485 0.135-0.647 0.108-0.126 0.224-0.225 0.35-0.296 0.126-0.090 0.207-0.144 0.243-0.162 0.054-0.036 0.189-0.072 0.404-0.108 0.234-0.054 0.377-0.090 0.431-0.108 0.216-0.054 0.521-0.153 0.916-0.296 0.395-0.162 0.638-0.252 0.728-0.269 0.108-0.036 0.35-0.144 0.728-0.323 0.395-0.18 0.71-0.287 0.943-0.323 0.288-0.036 0.593-0.117 0.916-0.243 0.485-0.162 0.755-0.243 0.808-0.243 0.503 0 0.817 0.090 0.943 0.269 0.072 0.054 0.090 0.135 0.054 0.243-0.018 0.090-0.036 0.162-0.054 0.216-0.018 0.036-0.063 0.108-0.135 0.216-0.072 0.090-0.117 0.162-0.135 0.216-0.036 0.090-0.072 0.252-0.108 0.485-0.036 0.216-0.099 0.377-0.189 0.485-0.036 0.054-0.108 0.126-0.216 0.216-0.090 0.090-0.153 0.162-0.189 0.216-0.018 0.036-0.054 0.108-0.108 0.216-0.036 0.108-0.027 0.198 0.027 0.269 0.126 0.377 0.090 0.719-0.108 1.024-0.090 0.108-0.117 0.287-0.081 0.539 0.036 0.234 0.036 0.404 0 0.512-0.054 0.18-0.171 0.593-0.35 1.24-0.18 0.629-0.296 1.114-0.35 1.455-0.198 1.186-0.296 1.994-0.296 2.425 0 0.359-0.045 0.871-0.135 1.536s-0.144 1.087-0.162 1.267c-0.036 0.323-0.054 0.808-0.054 1.455 0 0.054 0.018 0.207 0.054 0.458s0.036 0.404 0 0.458c-0.072 0.341-0.045 1.114 0.081 2.317 0.108 0.88 0.251 1.725 0.431 2.533 0.054 0.251 0.081 0.638 0.081 1.159 0 0.144 0.054 0.368 0.162 0.674 0.126 0.288 0.18 0.503 0.162 0.647-0.018 0.323-0.027 0.799-0.027 1.428 0 1.581-0.063 2.695-0.189 3.341 0 0.018-0.018 0.099-0.054 0.243-0.018 0.162-0.036 0.278-0.054 0.35-0.018 0.090-0.045 0.216-0.081 0.377s-0.081 0.288-0.135 0.377c-0.036 0.090-0.090 0.18-0.162 0.269-0.054 0.108-0.126 0.171-0.216 0.189-0.072 0.036-0.162 0.045-0.269 0.027-0.126-0.036-0.207-0.135-0.243-0.296-0.018-0.162-0.072-0.243-0.162-0.243-0.108 0-0.198 0.027-0.269 0.081-0.054 0.072-0.108 0.171-0.162 0.296s-0.099 0.216-0.135 0.269c-0.305 0.431-0.889 0.647-1.752 0.647-0.269 0-0.53-0.027-0.781-0.081-0.18-0.036-0.296-0.108-0.35-0.216s-0.018-0.216 0.108-0.323c0.072-0.054 0.216-0.090 0.431-0.108 0.234-0.018 0.368-0.072 0.404-0.162 0.036-0.108-0.027-0.189-0.189-0.243-0.162-0.036-0.377-0.054-0.647-0.054-0.593 0-1.051 0.045-1.374 0.135-0.647 0.144-1.087 0.198-1.32 0.162-0.18-0.036-0.422-0.072-0.728-0.108-0.323-0.018-0.557-0.036-0.701-0.054zM52.717 30.41c0.018-0.126-0.036-0.189-0.162-0.189s-0.224 0.081-0.296 0.243c-0.036 0.126 0.018 0.189 0.162 0.189 0.18 0 0.278-0.081 0.296-0.243zM54.9 3.112c-0.072 0.018-0.153 0.063-0.243 0.135s-0.090 0.135 0 0.189c0.144 0.090 0.269 0.054 0.377-0.108 0.090-0.144 0.063-0.216-0.081-0.216-0.018 0-0.036 0-0.054 0z"></path>
</symbol>
<symbol id="untitled2" viewBox="0 0 56 32">
<path fill="#fff" style="fill: var(--color2, #fff)" d="M2.035 31.138c-0.539-0.144-0.44-0.485 0.296-1.024 0.269-0.198 0.413-0.314 0.431-0.35 0.054-0.072 0.081-0.153 0.081-0.243 0.018-0.072 0.018-0.171 0-0.296s-0.027-0.216-0.027-0.269v-1.509c0.054-1.419 0.090-2.201 0.108-2.344 0.018-0.126 0.018-0.314 0-0.566-0.018-0.269-0.018-0.476 0-0.62 0.018-0.108 0.072-0.314 0.162-0.62s0.144-0.539 0.162-0.701c0.072-0.773 0.225-1.59 0.458-2.452 0.090-0.359 0.18-0.862 0.269-1.509 0.108-0.665 0.189-1.132 0.243-1.401 0.162-0.701 0.35-1.725 0.566-3.072 0.234-1.347 0.368-2.102 0.404-2.264 0.018-0.054 0.063-0.243 0.135-0.566 0.090-0.341 0.135-0.611 0.135-0.808 0-0.341 0.063-0.781 0.189-1.32 0.234-0.772 0.341-1.276 0.323-1.509-0.036-0.539 0.108-1.033 0.431-1.482 0.090-0.126 0.153-0.243 0.189-0.35s0.063-0.234 0.081-0.377c0.018-0.162 0.036-0.287 0.054-0.377 0.018-0.108 0.072-0.216 0.162-0.323 0.090-0.126 0.162-0.216 0.216-0.269 0.054-0.072 0.162-0.18 0.323-0.323s0.252-0.225 0.269-0.243c0.323-0.305 0.71-0.422 1.159-0.35 0.198 0.036 0.467 0.018 0.808-0.054 0.359-0.090 0.611-0.135 0.755-0.135 0.144-0.018 0.225-0.018 0.243 0 1.060 0 1.868 0.099 2.425 0.296 0.162 0.054 0.422 0.144 0.781 0.269 0.377 0.108 0.701 0.216 0.97 0.323 0.287 0.108 0.548 0.234 0.781 0.377 0.287 0.18 0.431 0.413 0.431 0.701 0 0.359-0.252 0.485-0.755 0.377-0.808-0.18-1.85-0.368-3.126-0.566-0.305-0.054-0.737-0.063-1.293-0.027-0.539 0.036-0.961 0.036-1.267 0-0.252-0.036-0.422 0.027-0.512 0.189-0.072 0.144-0.099 0.368-0.081 0.674 0.036 0.287 0.045 0.458 0.027 0.512-0.072 0.323-0.144 0.781-0.216 1.374s-0.135 1.015-0.189 1.267c-0.018 0.090-0.081 0.269-0.189 0.539s-0.162 0.467-0.162 0.593c0 0.323-0.090 0.79-0.269 1.401-0.072 0.269-0.144 0.665-0.216 1.186-0.054 0.521-0.126 0.907-0.216 1.159-0.305 1.024-0.548 2.003-0.728 2.937-0.108 0.629-0.332 1.527-0.674 2.695s-0.566 2.012-0.674 2.533c-0.234 1.096-0.404 1.967-0.512 2.614-0.054 0.288-0.117 0.71-0.189 1.267-0.054 0.557-0.108 0.97-0.162 1.24-0.072 0.557-0.099 0.925-0.081 1.105 0 0.054-0.009 0.153-0.027 0.296 0 0.162 0 0.305 0 0.431 0.018 0.126 0.063 0.224 0.135 0.296 0.126 0.126 0.377 0.189 0.755 0.189 0.162 0 0.395-0.018 0.701-0.054 0.305-0.018 0.485-0.027 0.539-0.027 0.305 0 0.395-0.108 0.269-0.323-0.036-0.054-0.207-0.081-0.512-0.081-0.683 0-1.051-0.009-1.105-0.027-0.18-0.072-0.243-0.171-0.189-0.296 0.054-0.108 0.153-0.198 0.296-0.269 0.162-0.072 0.341-0.108 0.539-0.108 0.234 0 0.476 0.054 0.728 0.162 0.144 0.054 0.35 0.099 0.62 0.135 0.287 0.036 0.503 0.081 0.647 0.135 0.359 0.144 0.755 0.243 1.186 0.296 0.305 0.054 0.593 0.243 0.862 0.566 0.108 0.126 0.269 0.261 0.485 0.404 0.234 0.162 0.386 0.278 0.458 0.35 0.144 0.144 0.189 0.288 0.135 0.431-0.036 0.144-0.144 0.261-0.323 0.35-0.144 0.072-0.305 0.108-0.485 0.108-0.198 0-0.431-0.045-0.701-0.135-0.737-0.251-1.572-0.359-2.506-0.323-0.234 0.018-0.602 0.018-1.105 0-0.485-0.018-0.853-0.018-1.105 0-0.647 0.036-1.141 0.054-1.482 0.054-0.090 0-0.296 0.027-0.62 0.081-0.323 0.072-0.566 0.090-0.728 0.054zM7.774 6.481c0 0.018-0.009 0.117-0.027 0.296s-0.027 0.341-0.027 0.485c0 0.144 0.027 0.234 0.081 0.269 0.090 0.054 0.171 0.054 0.243 0 0.072-0.072 0.117-0.18 0.135-0.323 0.036-0.144 0.054-0.261 0.054-0.35 0.018-0.108 0.027-0.189 0.027-0.243s0.009-0.144 0.027-0.269c0.018-0.126 0.027-0.234 0.027-0.323s-0.009-0.189-0.027-0.296c0-0.108-0.027-0.189-0.081-0.243s-0.135-0.081-0.243-0.081c-0.126 0-0.189 0.359-0.189 1.078zM23.414 25.155c-0.521-0.575-0.781-0.952-0.781-1.132 0-0.072 0.009-0.135 0.027-0.189 0.036-0.072 0.081-0.135 0.135-0.189 0.054-0.072 0.099-0.135 0.135-0.189 0.054-0.054 0.126-0.108 0.216-0.162 0.108-0.072 0.18-0.126 0.216-0.162 0.054-0.036 0.135-0.090 0.243-0.162s0.171-0.117 0.189-0.135c1.293-0.88 2.254-1.563 2.883-2.048 0.108-0.090 0.206-0.216 0.296-0.377 0.108-0.18 0.18-0.288 0.216-0.323 0.431-0.485 0.862-0.934 1.293-1.347 0.431-0.431 0.763-0.808 0.997-1.132 0.036-0.054 0.153-0.207 0.35-0.458s0.341-0.467 0.431-0.647c0.090-0.18 0.135-0.368 0.135-0.566s-0.018-0.422-0.054-0.674c-0.018-0.269-0.099-0.548-0.243-0.835-0.126-0.305-0.288-0.458-0.485-0.458-0.054 0-0.099 0.009-0.135 0.027s-0.090 0.063-0.162 0.135c-0.054 0.054-0.144 0.108-0.269 0.162-0.162 0.072-0.341 0.234-0.539 0.485-0.18 0.252-0.332 0.377-0.458 0.377s-0.189-0.072-0.189-0.216c0-0.036 0.054-0.108 0.162-0.216 0.108-0.126 0.135-0.216 0.081-0.269-0.036-0.054-0.036-0.108 0-0.162 0.036-0.072 0.099-0.144 0.189-0.216s0.18-0.135 0.269-0.189c0.108-0.054 0.206-0.108 0.296-0.162 0.108-0.072 0.171-0.117 0.189-0.135 0.072-0.054 0.036-0.117-0.108-0.189-0.054-0.018-0.108-0.027-0.162-0.027-0.072 0-0.314 0.054-0.728 0.162-0.413 0.090-0.656 0.153-0.728 0.189-0.485 0.252-0.728 0.485-0.728 0.701 0.090 0.359 0.135 0.575 0.135 0.647 0 0.269-0.063 0.404-0.189 0.404-0.216 0-0.368-0.126-0.458-0.377s-0.153-0.377-0.189-0.377c-0.108 0-0.252 0.144-0.431 0.431-0.162 0.287-0.288 0.431-0.377 0.431-0.072 0-0.135-0.027-0.189-0.081-0.054-0.072-0.081-0.135-0.081-0.189 0-0.79 0.117-1.276 0.35-1.455 0.144-0.108 0.287-0.216 0.431-0.323 0.144-0.126 0.243-0.216 0.296-0.269 0.072-0.072 0.144-0.126 0.216-0.162s0.135-0.054 0.189-0.054c0.251 0 0.476-0.072 0.674-0.216 0.036-0.036 0.126-0.072 0.269-0.108 0.144-0.054 0.243-0.108 0.296-0.162 0.233-0.216 0.629-0.323 1.186-0.323 0.305 0 0.62 0.063 0.943 0.189 0.323 0.108 0.611 0.162 0.862 0.162 0.323 0 0.593-0.027 0.808-0.081 0.233-0.072 0.467-0.108 0.701-0.108 0.503 0 0.934 0.18 1.293 0.539 0.485 0.485 0.728 0.907 0.728 1.267 0 0.826-0.126 1.536-0.377 2.129-0.162 0.395-0.728 1.356-1.698 2.883-0.198 0.305-0.422 0.602-0.674 0.889-0.234 0.288-0.467 0.548-0.701 0.781s-0.467 0.458-0.701 0.674c-0.216 0.216-0.422 0.404-0.62 0.566s-0.368 0.296-0.512 0.404c-0.144 0.108-0.279 0.207-0.404 0.296l-0.162 0.108c-0.701 0.593-1.051 0.943-1.051 1.051 0 0.269 0.243 0.404 0.728 0.404 0.287 0 0.611-0.027 0.97-0.081 0.377-0.072 0.683-0.108 0.916-0.108 0.216 0 0.431-0.027 0.647-0.081 0.216-0.072 0.377-0.108 0.485-0.108 0.216 0 0.665-0.135 1.347-0.404 0.090-0.036 0.18-0.054 0.269-0.054 0.090-0.018 0.153-0.036 0.189-0.054 0.144-0.072 0.323-0.171 0.539-0.296 0.233-0.126 0.359-0.189 0.377-0.189 0.072-0.036 0.135-0.072 0.189-0.108 0.072-0.054 0.126-0.099 0.162-0.135s0.081-0.063 0.135-0.081c0.054-0.036 0.099-0.054 0.135-0.054 0.144 0 0.216 0.243 0.216 0.728 0 0.144-0.108 0.305-0.323 0.485-0.108 0.108-0.422 0.251-0.943 0.431-0.593 0.234-1.159 0.476-1.698 0.728-0.521 0.234-0.898 0.404-1.132 0.512s-0.395 0.171-0.485 0.189c-0.269 0.036-0.889 0.054-1.859 0.054-0.036 0-0.099-0.009-0.189-0.027s-0.153-0.027-0.189-0.027c-0.108 0-0.269 0-0.485 0-0.198 0.018-0.35 0.027-0.458 0.027-0.395 0-0.818-0.054-1.267-0.162-0.431-0.090-0.808-0.135-1.132-0.135-0.395 0-0.692-0.099-0.889-0.296zM24.438 23.916c0 0.072 0.036 0.153 0.108 0.243 0.090 0.072 0.198 0.108 0.323 0.108 0.072 0 0.206-0.126 0.404-0.377 0.054-0.072 0.198-0.189 0.431-0.35 0.251-0.18 0.404-0.296 0.458-0.35 2.138-1.94 3.44-3.144 3.907-3.611 0.216-0.216 0.377-0.386 0.485-0.512s0.162-0.207 0.162-0.243c0.018-0.054 0.027-0.090 0.027-0.108 0.018-0.036 0.054-0.072 0.108-0.108 0.054-0.054 0.153-0.135 0.296-0.243 0.162-0.126 0.323-0.305 0.485-0.539s0.243-0.413 0.243-0.539c0-0.036-0.036-0.072-0.108-0.108s-0.108-0.081-0.108-0.135c0-0.072 0.063-0.135 0.189-0.189 0.126-0.072 0.189-0.135 0.189-0.189s-0.018-0.144-0.054-0.269c-0.036-0.126-0.054-0.216-0.054-0.269v-0.162c0.018-0.108 0.027-0.216 0.027-0.323 0-0.126 0-0.261 0-0.404s-0.009-0.269-0.027-0.377c-0.036-0.198-0.126-0.422-0.269-0.674-0.144-0.269-0.288-0.404-0.431-0.404-0.126 0-0.189 0.081-0.189 0.243l0.189 0.512c0.126 0.323 0.189 0.71 0.189 1.159 0 0.054-0.018 0.189-0.054 0.404-0.036 0.198-0.099 0.458-0.189 0.781-0.090 0.305-0.189 0.539-0.296 0.701-0.629 0.898-0.961 1.365-0.997 1.401l-0.243 0.243c-0.162 0.18-0.323 0.359-0.485 0.539-0.162 0.162-0.288 0.278-0.377 0.35-0.18 0.126-0.359 0.269-0.539 0.431-0.162 0.162-0.35 0.359-0.566 0.593s-0.377 0.404-0.485 0.512c-0.198 0.216-0.575 0.539-1.132 0.97-0.539 0.413-0.844 0.656-0.916 0.728-0.036 0.036-0.117 0.099-0.243 0.189-0.108 0.072-0.216 0.144-0.323 0.216-0.090 0.054-0.135 0.108-0.135 0.162zM27.294 15.912c0-0.072-0.045-0.198-0.135-0.377-0.072-0.18-0.108-0.323-0.108-0.431 0-0.162 0.036-0.296 0.108-0.404 0.072-0.126 0.153-0.189 0.243-0.189 0.126 0 0.189 0.054 0.189 0.162 0 0.036-0.009 0.099-0.027 0.189 0 0.072 0 0.126 0 0.162 0 0.198 0.072 0.359 0.216 0.485 0.162 0.108 0.243 0.198 0.243 0.269 0 0.036-0.072 0.099-0.216 0.189s-0.261 0.135-0.35 0.135c-0.108 0-0.162-0.063-0.162-0.189zM32.818 13.784c-0.090 0.018-0.153 0.063-0.189 0.135-0.072 0.234 0 0.395 0.216 0.485 0.126 0.054 0.189-0.036 0.189-0.269s-0.072-0.35-0.216-0.35zM44.729 30.491c-0.377-0.072-0.665-0.224-0.862-0.458-0.198-0.216-0.162-0.467 0.108-0.755 0.377-0.305 0.934-0.458 1.671-0.458 0.108 0 0.279 0 0.512 0 0.216 0.018 0.368 0.027 0.458 0.027 0.737 0.054 1.213 0.063 1.428 0.027 0.144-0.036 0.332-0.117 0.566-0.243s0.413-0.198 0.539-0.216c0.162-0.036 0.449-0.018 0.862 0.054 0.431 0.090 0.728 0.135 0.889 0.135 0.323 0 0.539-0.090 0.647-0.269 0.090-0.036 0.090-0.216 0-0.539-0.072-0.323-0.108-0.512-0.108-0.566 0-0.269-0.018-0.71-0.054-1.32-0.018-0.144-0.018-0.341 0-0.593 0.036-0.234 0.054-0.395 0.054-0.485 0-0.162-0.108-0.323-0.323-0.485-0.198-0.162-0.314-0.288-0.35-0.377-0.036-0.108-0.027-0.278 0.027-0.512 0.054-0.251 0.072-0.422 0.054-0.512-0.054-0.413-0.081-0.808-0.081-1.186 0-0.952 0.036-1.671 0.108-2.156 0.054-0.323 0.099-0.763 0.135-1.32 0.054-0.575 0.099-0.979 0.135-1.213 0.036-0.287 0.072-0.593 0.108-0.916 0.054-0.341 0.108-0.71 0.162-1.105s0.099-0.71 0.135-0.943c0.036-0.269 0.072-0.683 0.108-1.24 0.036-0.575 0.072-0.997 0.108-1.267 0.036-0.252 0.063-0.674 0.081-1.267 0.036-0.611 0.090-1.069 0.162-1.374 0.216-1.114 0.413-1.958 0.593-2.533 0.018-0.054 0.054-0.216 0.108-0.485 0.072-0.269 0.135-0.467 0.189-0.593 0.198-0.449 0.206-0.844 0.027-1.186s-0.332-0.512-0.458-0.512c-0.126 0-0.279 0.090-0.458 0.269-0.198 0.18-0.584 0.332-1.159 0.458s-1.060 0.189-1.455 0.189c-0.162 0-0.35 0.027-0.566 0.081-0.198 0.054-0.332 0.090-0.404 0.108-0.306 0.054-0.494-0.045-0.566-0.296-0.054-0.269-0.009-0.485 0.135-0.647 0.108-0.126 0.224-0.225 0.35-0.296 0.126-0.090 0.206-0.144 0.243-0.162 0.054-0.036 0.189-0.072 0.404-0.108 0.233-0.054 0.377-0.090 0.431-0.108 0.216-0.054 0.521-0.153 0.916-0.296 0.395-0.162 0.638-0.252 0.728-0.269 0.108-0.036 0.35-0.144 0.728-0.323 0.395-0.18 0.71-0.287 0.943-0.323 0.287-0.036 0.593-0.117 0.916-0.243 0.485-0.162 0.755-0.243 0.808-0.243 0.503 0 0.817 0.090 0.943 0.269 0.072 0.054 0.090 0.135 0.054 0.243-0.018 0.090-0.036 0.162-0.054 0.216-0.018 0.036-0.063 0.108-0.135 0.216-0.072 0.090-0.117 0.162-0.135 0.216-0.036 0.090-0.072 0.252-0.108 0.485-0.036 0.216-0.099 0.377-0.189 0.485-0.036 0.054-0.108 0.126-0.216 0.216-0.090 0.090-0.153 0.162-0.189 0.216-0.018 0.036-0.054 0.108-0.108 0.216-0.036 0.108-0.027 0.198 0.027 0.269 0.126 0.377 0.090 0.719-0.108 1.024-0.090 0.108-0.117 0.287-0.081 0.539 0.036 0.234 0.036 0.404 0 0.512-0.054 0.18-0.171 0.593-0.35 1.24-0.18 0.629-0.296 1.114-0.35 1.455-0.198 1.186-0.296 1.994-0.296 2.425 0 0.359-0.045 0.871-0.135 1.536s-0.144 1.087-0.162 1.267c-0.036 0.323-0.054 0.808-0.054 1.455 0 0.054 0.018 0.207 0.054 0.458s0.036 0.404 0 0.458c-0.072 0.341-0.045 1.114 0.081 2.317 0.108 0.88 0.251 1.725 0.431 2.533 0.054 0.251 0.081 0.638 0.081 1.159 0 0.144 0.054 0.368 0.162 0.674 0.126 0.288 0.18 0.503 0.162 0.647-0.018 0.323-0.027 0.799-0.027 1.428 0 1.581-0.063 2.695-0.189 3.341 0 0.018-0.018 0.099-0.054 0.243-0.018 0.162-0.036 0.278-0.054 0.35-0.018 0.090-0.045 0.216-0.081 0.377s-0.081 0.288-0.135 0.377c-0.036 0.090-0.090 0.18-0.162 0.269-0.054 0.108-0.126 0.171-0.216 0.189-0.072 0.036-0.162 0.045-0.269 0.027-0.126-0.036-0.207-0.135-0.243-0.296-0.018-0.162-0.072-0.243-0.162-0.243-0.108 0-0.198 0.027-0.269 0.081-0.054 0.072-0.108 0.171-0.162 0.296s-0.099 0.216-0.135 0.269c-0.306 0.431-0.889 0.647-1.752 0.647-0.269 0-0.53-0.027-0.782-0.081-0.18-0.036-0.296-0.108-0.35-0.216s-0.018-0.216 0.108-0.323c0.072-0.054 0.216-0.090 0.431-0.108 0.233-0.018 0.368-0.072 0.404-0.162 0.036-0.108-0.027-0.189-0.189-0.243-0.162-0.036-0.377-0.054-0.647-0.054-0.593 0-1.051 0.045-1.374 0.135-0.647 0.144-1.087 0.198-1.321 0.162-0.18-0.036-0.422-0.072-0.728-0.108-0.323-0.018-0.557-0.036-0.701-0.054zM50.981 30.41c0.018-0.126-0.036-0.189-0.162-0.189s-0.225 0.081-0.296 0.243c-0.036 0.126 0.018 0.189 0.162 0.189 0.18 0 0.278-0.081 0.296-0.243zM53.163 3.112c-0.072 0.018-0.153 0.063-0.243 0.135s-0.090 0.135 0 0.189c0.144 0.090 0.269 0.054 0.377-0.108 0.090-0.144 0.063-0.216-0.081-0.216-0.018 0-0.036 0-0.054 0z"></path>
</symbol>
<symbol id="untitled3" viewBox="0 0 51 32">
<path fill="#dc3b5a" style="fill: var(--color1, #dc3b5a)" d="M1.499 31.122c-0.549-0.146-0.448-0.494 0.302-1.042 0.274-0.201 0.421-0.32 0.439-0.357 0.055-0.073 0.082-0.155 0.082-0.247 0.018-0.073 0.018-0.174 0-0.302s-0.027-0.219-0.027-0.274v-1.536c0.055-1.445 0.091-2.24 0.11-2.386 0.018-0.128 0.018-0.32 0-0.576-0.018-0.274-0.018-0.485 0-0.631 0.018-0.11 0.073-0.32 0.165-0.631s0.146-0.549 0.165-0.713c0.073-0.786 0.229-1.618 0.466-2.496 0.091-0.366 0.183-0.878 0.274-1.536 0.11-0.677 0.192-1.152 0.247-1.426 0.165-0.713 0.357-1.755 0.576-3.127 0.238-1.371 0.375-2.139 0.411-2.304 0.018-0.055 0.064-0.247 0.137-0.576 0.091-0.347 0.137-0.622 0.137-0.823 0-0.347 0.064-0.795 0.192-1.344 0.238-0.786 0.347-1.298 0.329-1.536-0.037-0.549 0.11-1.051 0.439-1.509 0.091-0.128 0.155-0.247 0.192-0.357s0.064-0.238 0.082-0.384c0.018-0.165 0.037-0.293 0.055-0.384 0.018-0.11 0.073-0.219 0.165-0.329 0.091-0.128 0.165-0.219 0.219-0.274 0.055-0.073 0.165-0.183 0.329-0.329s0.256-0.229 0.274-0.247c0.329-0.311 0.722-0.43 1.179-0.357 0.201 0.037 0.475 0.018 0.823-0.055 0.366-0.091 0.622-0.137 0.768-0.137 0.146-0.018 0.229-0.018 0.247 0 1.079 0 1.902 0.101 2.469 0.302 0.165 0.055 0.43 0.146 0.795 0.274 0.384 0.11 0.713 0.219 0.987 0.329 0.293 0.11 0.558 0.238 0.795 0.384 0.293 0.183 0.439 0.421 0.439 0.713 0 0.366-0.256 0.494-0.768 0.384-0.823-0.183-1.883-0.375-3.182-0.576-0.311-0.055-0.75-0.064-1.317-0.027-0.549 0.037-0.978 0.037-1.289 0-0.256-0.037-0.43 0.027-0.521 0.192-0.073 0.146-0.101 0.375-0.082 0.686 0.037 0.293 0.046 0.466 0.027 0.521-0.073 0.329-0.146 0.795-0.219 1.399s-0.137 1.033-0.192 1.289c-0.018 0.091-0.082 0.274-0.192 0.549s-0.165 0.475-0.165 0.603c0 0.329-0.091 0.805-0.274 1.426-0.073 0.274-0.146 0.677-0.219 1.207-0.055 0.53-0.128 0.923-0.219 1.179-0.311 1.042-0.558 2.039-0.741 2.99-0.11 0.64-0.338 1.554-0.686 2.743s-0.576 2.048-0.686 2.578c-0.238 1.115-0.411 2.002-0.521 2.661-0.055 0.293-0.119 0.722-0.192 1.289-0.055 0.567-0.11 0.987-0.165 1.262-0.073 0.567-0.101 0.942-0.082 1.125 0 0.055-0.009 0.155-0.027 0.302 0 0.165 0 0.311 0 0.439 0.018 0.128 0.064 0.229 0.137 0.302 0.128 0.128 0.384 0.192 0.768 0.192 0.165 0 0.402-0.018 0.713-0.055 0.311-0.018 0.494-0.027 0.549-0.027 0.311 0 0.402-0.11 0.274-0.329-0.037-0.055-0.21-0.082-0.521-0.082-0.695 0-1.070-0.009-1.125-0.027-0.183-0.073-0.247-0.174-0.192-0.302 0.055-0.11 0.155-0.201 0.302-0.274 0.165-0.073 0.347-0.11 0.549-0.11 0.238 0 0.485 0.055 0.741 0.165 0.146 0.055 0.357 0.101 0.631 0.137 0.293 0.037 0.512 0.082 0.658 0.137 0.366 0.146 0.768 0.247 1.207 0.302 0.311 0.055 0.603 0.247 0.878 0.576 0.11 0.128 0.274 0.265 0.494 0.411 0.238 0.165 0.393 0.283 0.466 0.357 0.146 0.146 0.192 0.293 0.137 0.439-0.037 0.146-0.146 0.265-0.329 0.357-0.146 0.073-0.311 0.11-0.494 0.11-0.201 0-0.439-0.046-0.713-0.137-0.75-0.256-1.6-0.366-2.551-0.329-0.238 0.018-0.613 0.018-1.125 0-0.494-0.018-0.869-0.018-1.125 0-0.658 0.037-1.161 0.055-1.509 0.055-0.091 0-0.302 0.027-0.631 0.082-0.329 0.073-0.576 0.091-0.741 0.055zM7.342 6.025c0 0.018-0.009 0.119-0.027 0.302s-0.027 0.347-0.027 0.494c0 0.146 0.027 0.238 0.082 0.274 0.091 0.055 0.174 0.055 0.247 0 0.073-0.073 0.119-0.183 0.137-0.329 0.037-0.146 0.055-0.265 0.055-0.357 0.018-0.11 0.027-0.192 0.027-0.247s0.009-0.146 0.027-0.274c0.018-0.128 0.027-0.238 0.027-0.329s-0.009-0.192-0.027-0.302c0-0.11-0.027-0.192-0.082-0.247s-0.137-0.082-0.247-0.082c-0.128 0-0.192 0.366-0.192 1.097zM23.754 25.143c-0.695-0.091-1.042-0.448-1.042-1.070 0-0.219 0.146-0.814 0.439-1.783 0.256-0.841 0.795-2.213 1.618-4.114 0.091-0.201 0.238-0.549 0.439-1.042 0.201-0.512 0.366-0.905 0.494-1.179 0.53-1.17 0.832-1.911 0.905-2.222 0.183-0.933 0.439-1.682 0.768-2.249 0.073-0.11 0.155-0.329 0.247-0.658 0.11-0.329 0.219-0.585 0.329-0.768 0.128-0.201 0.302-0.302 0.521-0.302 0.183 0 0.32 0.037 0.411 0.11 0.11 0.055 0.183 0.165 0.219 0.329s0.055 0.274 0.055 0.329c0 0.055 0 0.192 0 0.411 0 0.768 0.018 1.344 0.055 1.728 0.037 0.457-0.037 1.125-0.219 2.002-0.055 0.311-0.274 0.997-0.658 2.057-0.037 0.11-0.082 0.283-0.137 0.521-0.037 0.238-0.082 0.457-0.137 0.658-0.055 0.183-0.137 0.329-0.247 0.439-0.128 0.146-0.338 0.155-0.631 0.027-0.055-0.018-0.101-0.027-0.137-0.027s-0.073 0.009-0.11 0.027c-0.037 0.018-0.073 0.037-0.11 0.055-0.018 0.018-0.046 0.055-0.082 0.11-0.018 0.037-0.037 0.073-0.055 0.11 0 0.018-0.018 0.055-0.055 0.11-0.018 0.055-0.027 0.091-0.027 0.11-0.037 0.11-0.11 0.265-0.219 0.466-0.091 0.183-0.155 0.311-0.192 0.384s-0.073 0.21-0.11 0.411c-0.037 0.201-0.082 0.347-0.137 0.439-0.037 0.073-0.192 0.32-0.466 0.741-0.073 0.11-0.174 0.283-0.302 0.521-0.11 0.219-0.201 0.384-0.274 0.494-0.219 0.311-0.219 0.521 0 0.631 0.11 0.055 0.283-0.064 0.521-0.357 0.128-0.165 0.247-0.247 0.357-0.247 0.091 0 0.155 0.064 0.192 0.192 0.055 0.11 0.055 0.247 0 0.411-0.037 0.146-0.101 0.293-0.192 0.439s-0.21 0.311-0.357 0.494c-0.128 0.183-0.219 0.32-0.274 0.411-0.384 0.64-0.85 0.923-1.399 0.85zM27.183 17.408c-0.183 0-0.238 0.064-0.165 0.192 0.091 0.146 0.219 0.165 0.384 0.055s0.137-0.183-0.082-0.219c-0.055-0.018-0.101-0.027-0.137-0.027zM39.626 30.464c-0.384-0.073-0.677-0.229-0.878-0.466-0.201-0.219-0.165-0.475 0.11-0.768 0.384-0.311 0.951-0.466 1.701-0.466 0.11 0 0.283 0 0.521 0 0.219 0.018 0.375 0.027 0.466 0.027 0.75 0.055 1.234 0.064 1.454 0.027 0.146-0.037 0.338-0.119 0.576-0.247s0.421-0.201 0.549-0.219c0.165-0.037 0.457-0.018 0.878 0.055 0.439 0.091 0.741 0.137 0.905 0.137 0.329 0 0.549-0.091 0.658-0.274 0.091-0.037 0.091-0.219 0-0.549-0.073-0.329-0.11-0.521-0.11-0.576 0-0.274-0.018-0.722-0.055-1.344-0.018-0.146-0.018-0.347 0-0.603 0.037-0.238 0.055-0.402 0.055-0.494 0-0.165-0.11-0.329-0.329-0.494-0.201-0.165-0.32-0.293-0.357-0.384-0.037-0.11-0.027-0.283 0.027-0.521 0.055-0.256 0.073-0.43 0.055-0.521-0.055-0.421-0.082-0.823-0.082-1.207 0-0.969 0.037-1.701 0.11-2.194 0.055-0.329 0.101-0.777 0.137-1.344 0.055-0.585 0.101-0.997 0.137-1.234 0.037-0.293 0.073-0.603 0.11-0.933 0.055-0.347 0.11-0.722 0.165-1.125s0.101-0.722 0.137-0.96c0.037-0.274 0.073-0.695 0.11-1.262 0.037-0.585 0.073-1.015 0.11-1.289 0.037-0.256 0.064-0.686 0.082-1.289 0.037-0.622 0.091-1.088 0.165-1.399 0.219-1.134 0.421-1.993 0.603-2.578 0.018-0.055 0.055-0.219 0.11-0.494 0.073-0.274 0.137-0.475 0.192-0.603 0.201-0.457 0.21-0.859 0.027-1.207s-0.338-0.521-0.466-0.521c-0.128 0-0.283 0.091-0.466 0.274-0.201 0.183-0.594 0.338-1.179 0.466s-1.079 0.192-1.481 0.192c-0.165 0-0.357 0.027-0.576 0.082-0.201 0.055-0.338 0.091-0.411 0.11-0.311 0.055-0.503-0.046-0.576-0.302-0.055-0.274-0.009-0.494 0.137-0.658 0.11-0.128 0.229-0.229 0.357-0.302 0.128-0.091 0.21-0.146 0.247-0.165 0.055-0.037 0.192-0.073 0.411-0.11 0.238-0.055 0.384-0.091 0.439-0.11 0.219-0.055 0.53-0.155 0.933-0.302 0.402-0.165 0.649-0.256 0.741-0.274 0.11-0.037 0.357-0.146 0.741-0.329 0.402-0.183 0.722-0.293 0.96-0.329 0.293-0.037 0.603-0.119 0.933-0.247 0.494-0.165 0.768-0.247 0.823-0.247 0.512 0 0.832 0.091 0.96 0.274 0.073 0.055 0.091 0.137 0.055 0.247-0.018 0.091-0.037 0.165-0.055 0.219-0.018 0.037-0.064 0.11-0.137 0.219-0.073 0.091-0.119 0.165-0.137 0.219-0.037 0.091-0.073 0.256-0.11 0.494-0.037 0.219-0.101 0.384-0.192 0.494-0.037 0.055-0.11 0.128-0.219 0.219-0.091 0.091-0.155 0.165-0.192 0.219-0.018 0.037-0.055 0.11-0.11 0.219-0.037 0.11-0.027 0.201 0.027 0.274 0.128 0.384 0.091 0.731-0.11 1.042-0.091 0.11-0.119 0.293-0.082 0.549 0.037 0.238 0.037 0.411 0 0.521-0.055 0.183-0.174 0.603-0.357 1.262-0.183 0.64-0.302 1.134-0.357 1.481-0.201 1.207-0.302 2.030-0.302 2.469 0 0.366-0.046 0.887-0.137 1.563s-0.146 1.106-0.165 1.289c-0.037 0.329-0.055 0.823-0.055 1.481 0 0.055 0.018 0.21 0.055 0.466s0.037 0.411 0 0.466c-0.073 0.347-0.046 1.134 0.082 2.359 0.11 0.896 0.256 1.755 0.439 2.578 0.055 0.256 0.082 0.649 0.082 1.179 0 0.146 0.055 0.375 0.165 0.686 0.128 0.293 0.183 0.512 0.165 0.658-0.018 0.329-0.027 0.814-0.027 1.454 0 1.609-0.064 2.743-0.192 3.401 0 0.018-0.018 0.101-0.055 0.247-0.018 0.165-0.037 0.283-0.055 0.357-0.018 0.091-0.046 0.219-0.082 0.384s-0.082 0.293-0.137 0.384c-0.037 0.091-0.091 0.183-0.165 0.274-0.055 0.11-0.128 0.174-0.219 0.192-0.073 0.037-0.165 0.046-0.274 0.027-0.128-0.037-0.21-0.137-0.247-0.302-0.018-0.165-0.073-0.247-0.165-0.247-0.11 0-0.201 0.027-0.274 0.082-0.055 0.073-0.11 0.174-0.165 0.302s-0.101 0.219-0.137 0.274c-0.311 0.439-0.905 0.658-1.783 0.658-0.274 0-0.539-0.027-0.795-0.082-0.183-0.037-0.302-0.11-0.357-0.219s-0.018-0.219 0.11-0.329c0.073-0.055 0.219-0.091 0.439-0.11 0.238-0.018 0.375-0.073 0.411-0.165 0.037-0.11-0.027-0.192-0.192-0.247-0.165-0.037-0.384-0.055-0.658-0.055-0.603 0-1.070 0.046-1.399 0.137-0.658 0.146-1.106 0.201-1.344 0.165-0.183-0.037-0.43-0.073-0.741-0.11-0.329-0.018-0.567-0.037-0.713-0.055zM45.989 30.382c0.018-0.128-0.037-0.192-0.165-0.192s-0.229 0.082-0.302 0.247c-0.037 0.128 0.018 0.192 0.165 0.192 0.183 0 0.283-0.082 0.302-0.247zM48.211 2.597c-0.073 0.018-0.155 0.064-0.247 0.137s-0.091 0.137 0 0.192c0.146 0.091 0.274 0.055 0.384-0.11 0.091-0.146 0.064-0.219-0.082-0.219-0.018 0-0.037 0-0.055 0z"></path>
</symbol>
<symbol id="x" viewBox="0 0 33 32">
<path fill="#fff" style="fill: var(--color2, #fff)" d="M24.222 9.636l-14.142 14.142-1.414-1.414 14.142-14.142 1.414 1.414z"></path>
<path fill="#fff" style="fill: var(--color2, #fff)" d="M10.081 8.222l14.142 14.142-1.414 1.414-14.142-14.142 1.414-1.414z"></path>
</symbol>
<symbol id="fox" viewBox="0 0 32 32">
<path fill="#f5841f" style="fill: var(--color3, #f5841f)" d="M26.156 15.984l1.078-1.266-0.469-0.344 0.75-0.687-0.578-0.437 0.75-0.563-0.484-0.375 0.781-3.813-1.187-3.531zM26.797 4.969l-7.625 2.828h-6.359l-7.625-2.828-1.188 3.531 0.797 3.813-0.5 0.375 0.766 0.563-0.578 0.437 0.75 0.687-0.469 0.344 1.078 1.266-1.641 5.063 1.516 5.172 5.328-1.469 1.031 0.844 2.109 1.437h3.609l2.109-1.437 1.031-0.844 5.344 1.469 1.531-5.172-1.656-5.063z"></path>
<path fill="#e27625" style="fill: var(--color4, #e27625)" d="M26.797 4.969l-9.359 6.891 1.734-4.063 7.625-2.828z"></path>
<path fill="#e27625" style="fill: var(--color4, #e27625)" d="M5.188 4.969l9.281 6.953-1.656-4.125-7.625-2.828z"></path>
<path fill="#e27625" style="fill: var(--color4, #e27625)" d="M23.437 20.953l-2.5 3.781 5.344 1.469 1.531-5.172-4.375-0.078z"></path>
<path fill="#e27625" style="fill: var(--color4, #e27625)" d="M4.203 21.031l1.516 5.172 5.328-1.469-2.484-3.781-4.359 0.078z"></path>
<path fill="#e27625" style="fill: var(--color4, #e27625)" d="M10.766 14.547l-1.484 2.234 5.281 0.234-0.172-5.656-3.625 3.188z"></path>
<path fill="#e27625" style="fill: var(--color4, #e27625)" d="M21.234 14.547l-3.687-3.25-0.109 5.719 5.281-0.234-1.484-2.234z"></path>
<path fill="#e27625" style="fill: var(--color4, #e27625)" d="M11.047 24.734l3.203-1.531-2.766-2.125-0.438 3.656z"></path>
<path fill="#e27625" style="fill: var(--color4, #e27625)" d="M17.75 23.203l3.187 1.531-0.437-3.656-2.75 2.125z"></path>
<path fill="#d7c1b3" style="fill: var(--color5, #d7c1b3)" d="M20.937 24.734l-3.187-1.531 0.266 2.063-0.031 0.875 2.953-1.406z"></path>
<path fill="#d7c1b3" style="fill: var(--color5, #d7c1b3)" d="M11.047 24.734l2.969 1.406-0.016-0.875 0.25-2.063-3.203 1.531z"></path>
<path fill="#2f343b" style="fill: var(--color6, #2f343b)" d="M14.063 19.703l-2.641-0.766 1.875-0.859 0.766 1.625z"></path>
<path fill="#2f343b" style="fill: var(--color6, #2f343b)" d="M17.922 19.703l0.781-1.625 1.875 0.859-2.656 0.766z"></path>
<path fill="#cc6228" style="fill: var(--color7, #cc6228)" d="M11.047 24.734l0.469-3.781-2.953 0.078 2.484 3.703z"></path>
<path fill="#cc6228" style="fill: var(--color7, #cc6228)" d="M20.484 20.953l0.453 3.781 2.5-3.703-2.953-0.078z"></path>
<path fill="#cc6228" style="fill: var(--color7, #cc6228)" d="M22.719 16.781l-5.281 0.234 0.484 2.687 0.781-1.625 1.875 0.859 2.141-2.156z"></path>
<path fill="#cc6228" style="fill: var(--color7, #cc6228)" d="M11.422 18.937l1.875-0.859 0.766 1.625 0.5-2.687-5.281-0.234 2.141 2.156z"></path>
<path fill="#e27625" style="fill: var(--color4, #e27625)" d="M9.281 16.781l2.203 4.297-0.063-2.141-2.141-2.156z"></path>
<path fill="#e27625" style="fill: var(--color4, #e27625)" d="M20.578 18.937l-0.078 2.141 2.219-4.297-2.141 2.156z"></path>
<path fill="#e27625" style="fill: var(--color4, #e27625)" d="M14.563 17.016l-0.5 2.687 0.625 3.188 0.141-4.188-0.266-1.687z"></path>
<path fill="#e27625" style="fill: var(--color4, #e27625)" d="M17.437 17.016l-0.266 1.672 0.125 4.203 0.625-3.188-0.484-2.687z"></path>
<path fill="#f5841f" style="fill: var(--color3, #f5841f)" d="M17.922 19.703l-0.625 3.188 0.453 0.312 2.75-2.125 0.078-2.141-2.656 0.766z"></path>
<path fill="#f5841f" style="fill: var(--color3, #f5841f)" d="M11.422 18.937l0.063 2.141 2.766 2.125 0.437-0.312-0.625-3.188-2.641-0.766z"></path>
<path fill="#c0ad9e" style="fill: var(--color8, #c0ad9e)" d="M17.984 26.141l0.031-0.875-0.25-0.203h-3.547l-0.219 0.203 0.016 0.875-2.969-1.406 1.031 0.844 2.109 1.453h3.609l2.109-1.453 1.031-0.844-2.953 1.406z"></path>
<path fill="#2f343b" style="fill: var(--color6, #2f343b)" d="M17.75 23.203l-0.453-0.312h-2.609l-0.437 0.312-0.25 2.063 0.219-0.203h3.547l0.25 0.203-0.266-2.063z"></path>
<path fill="#763e1a" style="fill: var(--color9, #763e1a)" d="M27.203 12.313l0.781-3.813-1.187-3.531-9.047 6.656 3.484 2.922 4.922 1.437 1.078-1.266-0.469-0.344 0.75-0.672-0.578-0.453 0.75-0.563-0.484-0.375z"></path>
<path fill="#763e1a" style="fill: var(--color9, #763e1a)" d="M4 8.5l0.797 3.813-0.5 0.375 0.75 0.578-0.578 0.437 0.75 0.672-0.469 0.344 1.094 1.266 4.922-1.437 3.484-2.922-9.063-6.656-1.188 3.531z"></path>
<path fill="#f5841f" style="fill: var(--color3, #f5841f)" d="M26.156 15.984l-4.922-1.437 1.484 2.234-2.219 4.297 2.937-0.047h4.375l-1.656-5.047z"></path>
<path fill="#f5841f" style="fill: var(--color3, #f5841f)" d="M10.766 14.547l-4.922 1.437-1.641 5.047h4.359l2.922 0.047-2.203-4.297 1.484-2.234z"></path>
<path fill="#f5841f" style="fill: var(--color3, #f5841f)" d="M17.437 17.016l0.313-5.391 1.422-3.828h-6.359l1.438 3.828 0.313 5.391 0.125 1.687v4.188h2.609l0.016-4.188 0.125-1.687z"></path>
</symbol>
<symbol id="up-left-arrow" viewBox="0 0 32 32">
<path d="M8.552 6h17.333v17.333h-5.333v-8.229l-10.667 10.667-3.771-3.771 10.667-10.667h-8.229v-5.333z"></path>
</symbol>
<symbol id="logoX" viewBox="0 0 32 32">
<path d="M19.044 13.543l11.913-13.543h-2.823l-10.344 11.759-8.262-11.759h-9.529l12.493 17.782-12.493 14.202h2.823l10.923-12.418 8.725 12.418h9.529l-12.956-18.441zM15.178 17.938l-11.337-15.86h4.336l19.959 27.921h-4.336l-8.622-12.061z"></path>
</symbol>
<symbol id="logomark" viewBox="0 0 32 32">
<path d="M16.14 0.001c-8.947-0.074-16.213 7.192-16.139 16.139 0.075 8.688 7.173 15.787 15.859 15.859 8.947 0.077 16.216-7.192 16.139-16.139-0.072-8.685-7.171-15.784-15.859-15.859zM11.356 7.964c1.024 1.301 1.637 2.947 1.637 4.733 0 1.547-0.459 2.987-1.248 4.189h-5.547l5.158-8.922zM28.268 17.711v1.152c0 0.075-0.040 0.139-0.109 0.168-0.376 0.16-1.616 0.736-2.133 1.453-1.331 1.853-2.347 4.765-4.619 4.765h-9.48c-3.357 0-6.165-2.664-6.163-6.213 0-0.088 0.075-0.16 0.163-0.16h4.493c0.155 0 0.277 0.125 0.277 0.277v0.867c0 0.461 0.373 0.835 0.835 0.835h3.408v-1.984h-2.328c1.339-1.696 2.136-3.837 2.136-6.168 0-2.6-0.997-4.971-2.629-6.744 0.987 0.115 1.931 0.312 2.821 0.573v-0.552c0-0.573 0.464-1.037 1.037-1.037s1.037 0.464 1.037 1.037v1.331c3.181 1.485 5.264 3.949 5.264 6.736 0 1.635-0.715 3.157-1.949 4.437-0.237 0.245-0.565 0.384-0.909 0.384h-2.405v1.981h3.019c0.651 0 1.819-1.235 2.373-1.979 0 0 0.024-0.037 0.088-0.056s5.544-1.277 5.544-1.277c0.115-0.032 0.229 0.056 0.229 0.173v0.002z"></path>
</symbol>
<symbol id="discord" viewBox="0 0 32 32">
<path d="M25.256 7.848c-1.726-0.759-3.572-1.31-5.501-1.624-0.237 0.403-0.514 0.944-0.705 1.375-2.051-0.29-4.084-0.29-6.097 0-0.191-0.431-0.474-0.972-0.713-1.375-1.932 0.314-3.78 0.867-5.506 1.628-3.482 4.943-4.426 9.763-3.954 14.515 2.309 1.62 4.547 2.604 6.747 3.248 0.543-0.702 1.028-1.449 1.445-2.236-0.795-0.284-1.556-0.634-2.276-1.041 0.191-0.133 0.378-0.272 0.558-0.415 4.388 1.928 9.155 1.928 13.491 0 0.182 0.143 0.369 0.282 0.558 0.415-0.722 0.409-1.485 0.759-2.28 1.043 0.417 0.785 0.9 1.534 1.445 2.236 2.202-0.644 4.442-1.628 6.752-3.25 0.554-5.509-0.946-10.285-3.964-14.519zM11.57 19.445c-1.317 0-2.397-1.155-2.397-2.562s1.057-2.564 2.397-2.564 2.42 1.155 2.397 2.564c0.002 1.407-1.057 2.562-2.397 2.562zM20.43 19.445c-1.317 0-2.397-1.155-2.397-2.562s1.057-2.564 2.397-2.564c1.34 0 2.42 1.155 2.397 2.564 0 1.407-1.057 2.562-2.397 2.562z"></path>
</symbol>
<symbol id="logo" viewBox="0 0 46 32">
<path d="M0.336 23.381h3.022c1.787 0 2.903 0.828 2.892 2.096-0.005 0.546 0 1.227-0.678 1.85 0.469 0 1.008 0.664 1.008 1.98 0 1.674-0.939 2.57-2.414 2.57h-3.83v-8.497zM2.19 25.202v1.543h1.463c0.541 0 0.671-0.476 0.671-0.724v-0.059c0-0.484-0.182-0.736-0.671-0.736l-1.463-0.023zM2.19 28.35v1.825h1.716c0.41 0 0.565-0.437 0.565-0.823v-0.127c0-0.583-0.266-0.864-0.756-0.864l-1.525-0.011z"></path>
<path d="M8.713 28.101l-2.805-4.72h2.439l1.354 2.769 1.488-2.769h2.22l-2.72 4.72v3.776h-1.976v-3.776z"></path>
<path d="M27.809 26.127c0 1.716-1.313 3.096-4.176 3.096v2.652h-2.001v-8.481h3.039c2.348 0 3.138 1.018 3.138 2.733zM23.633 27.639h0.698c0.901 0 1.607-0.524 1.607-1.512s-0.574-1.257-1.607-1.257h-0.698v2.768z"></path>
<path d="M0.336 22.237v-11.12h2.83l3.244 5.949 3.421-5.949h2.83v11.12h-2.83v-5.080l-3.421 5.080-3.244-5.080v5.080h-2.83z"></path>
<path d="M16.144 11.117h3.852l2.81 11.12h-2.501l-0.658-2.068h-3.243l-0.609 2.068h-2.55l2.899-11.12zM18.070 14.052l-1.274 4.072h2.455l-1.18-4.072z"></path>
<path d="M32.718 11.118h7.935v2.513h-5.408v1.75h5.408v2.45h-5.408v2.084h5.408v2.322h-7.935v-11.119z"></path>
<path d="M28.25 23.394h6.052v1.917h-4.125v1.335h4.125v1.869h-4.125v1.59h4.125v1.771h-6.052v-8.481z"></path>
<path d="M16.107 23.394h2.938l2.144 8.481h-1.907l-0.502-1.577h-2.474l-0.464 1.577h-1.946l2.212-8.481zM17.576 25.632l-0.972 3.105h1.873l-0.901-3.105z"></path>
<path  d="M26.957 22.253l-3.602-0.010v-11.12l3.602-0.035c3.375 0 5.177 1.633 5.177 5.666 0 3.094-1.73 5.498-5.177 5.498zM25.835 19.848h1.122c1.575 0 2.536-1.002 2.536-3.094s-0.75-3.067-2.536-3.067h-1.122v6.161z"></path>
<path d="M35.023 25.752c0-1.323 0.948-2.284 2.483-2.415 1.28-0.11 2.447 0.354 3.332 0.941l-0.809 1.797c0 0-0.905-0.524-1.437-0.692-0.417-0.132-0.972-0.008-1.086 0.275s-0.093 0.572 0.276 0.757c0.029 0.015 0.062 0.031 0.098 0.049 0.204 0.1 0.511 0.253 0.859 0.464h0.006c0 0 0.748 0.402 1.333 1.049 0.047 0.049 0.095 0.1 0.14 0.151h-0.010c0.313 0.386 0.552 0.846 0.552 1.351 0 1.322-1.093 2.375-2.627 2.506-1.28 0.11-2.451-0.474-3.336-1.061l0.625-1.8c0 0 1.237 0.555 1.769 0.724 0.417 0.132 0.972 0.008 1.086-0.275s0.128-0.484-0.276-0.757c-0.126-0.085-0.277-0.173-0.448-0.273-0.128-0.074-0.266-0.155-0.413-0.246-0.16-0.084-2.118-1.139-2.118-2.547h0.002z"></path>
<path d="M44.023 12.943v-1.854h0.445l0.555 0.992 0.53-0.992h0.527v1.854h-0.445v-0.915l-0.612 0.915-0.527-0.915v0.915h-0.472z"></path>
<path d="M42.17 11.479v-0.39h1.685v0.39h-0.614v1.464h-0.451v-1.464h-0.62z"></path>
<path d="M9.571 0.854l-0.956-0.158c-0.056-0.009-0.065-0.081-0.014-0.103 2.221-0.944 4.564-0.557 6.271 0.925 0.061 0.053 0.045 0.149-0.028 0.185-0.307 0.157-0.649 0.384-0.802 0.49-0.047 0.033-0.112 0.027-0.153-0.012-1.094-1.013-3.118-1.151-4.319-1.328v0.001z"></path>
<path d="M31.419 0.854l0.956-0.158c0.056-0.009 0.065-0.081 0.014-0.103-2.222-0.944-4.565-0.557-6.272 0.925-0.061 0.053-0.045 0.149 0.028 0.185 0.307 0.157 0.649 0.384 0.802 0.49 0.047 0.033 0.112 0.027 0.153-0.012 1.094-1.013 3.118-1.151 4.319-1.328v0.001z"></path>
<path d="M20.552 1.668c-1.536 0-2.395-0.377-3.907-0.399-0.051-0.001-0.076-0.060-0.039-0.093 1.078-0.954 3.156-1.176 3.878-1.176 0.607 0 2.618 0.176 3.789 1.169 0.040 0.034 0.013 0.095-0.040 0.094-1.515-0.024-1.526 0.404-3.683 0.404l0.001 0.001z"></path>
<path d="M1.506 9.458h-0.935c-0.164 0-0.276-0.16-0.221-0.309 0.103-0.275 0.237-0.667 0.254-0.894 0.017-0.216 0.009-0.396 0.002-0.558-0.014-0.328-0.025-0.588 0.173-0.951 0.163-0.298 0.342-0.537 0.525-0.78 0.229-0.305 0.464-0.617 0.677-1.063 0.162-0.34 0.267-0.824 0.379-1.342 0.103-0.477 0.213-0.983 0.379-1.432 0.347-0.934 0.47-1.267 1.319-1.406 0.829-0.136 1.777 0.126 2.738 0.393 0.551 0.153 1.107 0.307 1.649 0.387 0.341 0.051 0.687 0.095 1.031 0.139 1.441 0.184 2.847 0.364 3.729 1.021 0.104 0.078 0.104 0.226 0.025 0.329-0.33 0.429-0.605 1.193-0.658 2.112-0.038 0.66 0.123 1.482 0.42 2.498 0.171 0.586-0.133 1.22-0.334 1.641-0.013 0.027-0.025 0.053-0.038 0.079-0.039 0.082-0.123 0.136-0.216 0.136h-7.194c-0.127 0-0.23-0.1-0.236-0.223-0.051-1.052-0.468-2.15-1.544-2.15s-1.558 1.31-1.689 2.171c-0.017 0.114-0.116 0.202-0.236 0.202v-0.001zM3.325 5.796v-0.001c0.395 0.412 1.84 0.6 2.625-0.203 0.917-0.938 0.978-2.912 0.058-3.442-0.365-0.21-0.998-0.263-0.998-0.263-0.919 0-1.108 0.726-1.308 1.494-0.051 0.195-0.102 0.393-0.166 0.583-0.059 0.174-0.139 0.338-0.217 0.496-0.228 0.466-0.431 0.881 0.007 1.336zM7.956 6.865c0.881 0.622 2.297 0.458 2.915-0.023 0.812-0.633 0.993-2.752 0.304-3.37-0.743-0.667-1.551-0.74-2.423-0.336-0.986 0.457-1.41 3.297-0.796 3.73h0z"></path>
<path d="M39.483 9.458h0.934c0.164 0 0.276-0.16 0.221-0.309-0.103-0.275-0.237-0.667-0.254-0.894-0.017-0.216-0.010-0.396-0.002-0.558 0.014-0.328 0.025-0.588-0.173-0.951-0.163-0.298-0.342-0.537-0.525-0.78-0.229-0.305-0.464-0.617-0.677-1.063-0.162-0.34-0.267-0.824-0.379-1.342-0.103-0.477-0.213-0.983-0.379-1.432-0.347-0.934-0.47-1.267-1.319-1.406-0.829-0.136-1.777 0.126-2.738 0.393-0.551 0.153-1.108 0.307-1.649 0.387-0.341 0.051-0.687 0.095-1.031 0.139-1.441 0.184-2.847 0.364-3.729 1.021-0.104 0.078-0.104 0.226-0.025 0.329 0.33 0.429 0.605 1.193 0.658 2.112 0.038 0.66-0.123 1.482-0.42 2.498-0.155 0.532 0.080 1.102 0.276 1.517 0.097 0.205 0.311 0.338 0.544 0.338h6.963c0.128 0 0.23-0.1 0.236-0.223 0.051-1.052 0.468-2.15 1.544-2.15s1.559 1.31 1.689 2.171c0.017 0.114 0.116 0.202 0.236 0.202v-0.001zM37.665 5.796v-0.001c-0.395 0.412-1.84 0.6-2.625-0.203-0.916-0.938-0.978-2.912-0.057-3.442 0.365-0.21 0.998-0.263 0.998-0.263 0.919 0 1.108 0.726 1.308 1.494 0.051 0.195 0.102 0.393 0.166 0.583 0.059 0.174 0.139 0.338 0.217 0.496 0.228 0.466 0.431 0.881-0.007 1.336zM33.034 6.865c-0.881 0.622-2.297 0.458-2.915-0.023-0.812-0.633-0.993-2.752-0.304-3.37 0.743-0.667 1.551-0.74 2.423-0.336 0.986 0.457 1.41 3.297 0.796 3.73h-0.001z"></path>
<path d="M18.18 9.457v0.001c0.104 0 0.197-0.068 0.231-0.164 0.169-0.469 0.758-1.786 2.064-1.786s1.895 1.317 2.063 1.786c0.034 0.096 0.126 0.164 0.231 0.164h4.698c0.093 0 0.148-0.103 0.098-0.179-0.598-0.919-0.452-1.524-0.258-2.329 0.136-0.564 0.295-1.226 0.239-2.162-0.085-1.406-0.912-2.291-2.458-2.616-0.803-0.168-1.841-0.010-2.815 0.139-0.619 0.095-1.212 0.185-1.703 0.185-0.659 0-1.338-0.109-2.002-0.215-0.959-0.154-1.884-0.303-2.661-0.109-1.498 0.373-2.241 1.149-2.516 2.698-0.103 0.804 0.068 1.416 0.226 1.985 0.214 0.768 0.405 1.456-0.127 2.432-0.041 0.076 0.014 0.171 0.103 0.171h4.586zM17.509 7.262c-0.918 0.522-2.113 0.514-2.576-0.517-0.526-1.172-0.015-2.829 1.466-3.239 1.551-0.429 3.051-0.22 2.995 0.911-0.042 0.84-0.811 2.235-1.885 2.845v0zM26.089 6.745c-0.463 1.032-1.658 1.039-2.576 0.517-1.074-0.61-1.843-2.005-1.885-2.845-0.056-1.13 1.444-1.34 2.995-0.911 1.48 0.41 1.991 2.067 1.466 3.239v-0z"></path>
</symbol>
</defs>
</svg>
